<?xml version="1.0" encoding="utf-8"?>
<svg version="1.1" id="Layer_1" xmlns="http://www.w3.org/2000/svg" xmlns:xlink="http://www.w3.org/1999/xlink" x="0px" y="0px"
	 viewBox="0 0 5000 4524.719" enable-background="new 0 0 5000 4524.719" xml:space="preserve">
<symbol  id="_x31_" viewBox="-61.56 -56.118 123.12 112.236">
	<path fill="none" stroke="#000000" stroke-width="10.6909" stroke-linecap="round" d="M0,49.227
		c24.123-19.623,27.772-55.086,8.149-79.21c-15.335-18.852-41.035-25.739-63.742-17.08C-50.66-16.359-21.773,4.532,8.93-0.4
		c23.994-3.854,42.808-22.668,46.662-46.662C26.537-58.142-5.999-43.57-17.08-14.514C-25.739,8.192-18.852,33.892,0,49.227z"/>
</symbol>
<g>
	
		<use xlink:href="#_x31_"  width="123.12" height="112.236" x="-61.56" y="-56.118" transform="matrix(1.7779 -1.9195 -1.9195 -1.7779 2234.7083 345.8026)" overflow="visible"/>
	
		<use xlink:href="#_x31_"  width="123.12" height="112.236" x="-61.56" y="-56.118" transform="matrix(1.4892 -2.1512 -2.1512 -1.4892 2022.5227 610.1718)" overflow="visible"/>
	
		<use xlink:href="#_x31_"  width="123.12" height="112.236" x="-61.56" y="-56.118" transform="matrix(1.1712 -2.3396 -2.3396 -1.1712 1849.7545 901.8274)" overflow="visible"/>
	
		<use xlink:href="#_x31_"  width="123.12" height="112.236" x="-61.56" y="-56.118" transform="matrix(0.8307 -2.481 -2.481 -0.8307 1719.751 1214.8979)" overflow="visible"/>
	
		<use xlink:href="#_x31_"  width="123.12" height="112.236" x="-61.56" y="-56.118" transform="matrix(0.4743 -2.573 -2.573 -0.4743 1634.9963 1543.1265)" overflow="visible"/>
	
		<use xlink:href="#_x31_"  width="123.12" height="112.236" x="-61.56" y="-56.118" transform="matrix(0.1078 -2.6141 -2.6141 -0.1078 1597.1808 1880.0061)" overflow="visible"/>
	
		<use xlink:href="#_x31_"  width="123.12" height="112.236" x="-61.56" y="-56.118" transform="matrix(-0.2618 -2.6032 -2.6032 0.2618 1607.1718 2218.8572)" overflow="visible"/>
	
		<use xlink:href="#_x31_"  width="123.12" height="112.236" x="-61.56" y="-56.118" transform="matrix(-0.6264 -2.5403 -2.5403 0.6264 1664.8712 2552.9116)" overflow="visible"/>
	
		<use xlink:href="#_x31_"  width="123.12" height="112.236" x="-61.56" y="-56.118" transform="matrix(-0.9758 -2.4276 -2.4276 0.9758 1768.9994 2875.5273)" overflow="visible"/>
	
		<use xlink:href="#_x31_"  width="123.12" height="112.236" x="-61.56" y="-56.118" transform="matrix(-1.3056 -2.2673 -2.2673 1.3056 1917.0753 3180.4336)" overflow="visible"/>
	
		<use xlink:href="#_x31_"  width="123.12" height="112.236" x="-61.56" y="-56.118" transform="matrix(-1.6134 -2.0597 -2.0597 1.6134 2106.625 3461.4485)" overflow="visible"/>
	
		<use xlink:href="#_x31_"  width="123.12" height="112.236" x="-61.56" y="-56.118" transform="matrix(-1.8889 -1.8104 -1.8104 1.8889 2334.0959 3712.7817)" overflow="visible"/>
	
		<use xlink:href="#_x31_"  width="123.12" height="112.236" x="-61.56" y="-56.118" transform="matrix(-2.1251 -1.5261 -1.5261 2.1251 2594.7983 3929.4465)" overflow="visible"/>
	
		<use xlink:href="#_x31_"  width="123.12" height="112.236" x="-61.56" y="-56.118" transform="matrix(-2.318 -1.2133 -1.2133 2.318 2883.3621 4107.3369)" overflow="visible"/>
	
		<use xlink:href="#_x31_"  width="123.12" height="112.236" x="-61.56" y="-56.118" transform="matrix(-2.4649 -0.8771 -0.8771 2.4649 3193.9861 4243.0967)" overflow="visible"/>
	
		<use xlink:href="#_x31_"  width="123.12" height="112.236" x="-61.56" y="-56.118" transform="matrix(-2.5636 -0.5228 -0.5228 2.5636 3520.5588 4334.0371)" overflow="visible"/>
	
		<use xlink:href="#_x31_"  width="123.12" height="112.236" x="-61.56" y="-56.118" transform="matrix(-2.6117 -0.1561 -0.1561 2.6117 3856.6733 4378.1553)" overflow="visible"/>
	
		<use xlink:href="#_x31_"  width="123.12" height="112.236" x="-61.56" y="-56.118" transform="matrix(-2.6075 0.2156 0.2156 2.6075 4195.6426 4374.3013)" overflow="visible"/>
	
		<use xlink:href="#_x31_"  width="123.12" height="112.236" x="-61.56" y="-56.118" transform="matrix(-2.5507 0.5823 0.5823 2.5507 4530.6597 4322.4546)" overflow="visible"/>
	
		<use xlink:href="#_x31_"  width="123.12" height="112.236" x="-61.56" y="-56.118" transform="matrix(0.415 2.5832 2.5832 -0.415 4855.0342 4223.9736)" overflow="visible"/>
	
		<use xlink:href="#_x31_"  width="123.12" height="112.236" x="-61.56" y="-56.118" transform="matrix(0.7734 2.4994 2.4994 -0.7734 4777.8936 3893.8718)" overflow="visible"/>
	
		<use xlink:href="#_x31_"  width="123.12" height="112.236" x="-61.56" y="-56.118" transform="matrix(1.1183 2.3653 2.3653 -1.1183 4655.0386 3577.9282)" overflow="visible"/>
	
		<use xlink:href="#_x31_"  width="123.12" height="112.236" x="-61.56" y="-56.118" transform="matrix(1.4405 2.1841 2.1841 -1.4405 4488.8442 3282.4773)" overflow="visible"/>
	
		<use xlink:href="#_x31_"  width="123.12" height="112.236" x="-61.56" y="-56.118" transform="matrix(1.7332 1.9599 1.9599 -1.7332 4282.7212 3013.3538)" overflow="visible"/>
	
		<use xlink:href="#_x31_"  width="123.12" height="112.236" x="-61.56" y="-56.118" transform="matrix(1.9911 1.6973 1.6973 -1.9911 4040.8467 2775.8376)" overflow="visible"/>
	
		<use xlink:href="#_x31_"  width="123.12" height="112.236" x="-61.56" y="-56.118" transform="matrix(2.21 1.4005 1.4005 -2.21 3768.0098 2574.6462)" overflow="visible"/>
	
		<use xlink:href="#_x31_"  width="123.12" height="112.236" x="-61.56" y="-56.118" transform="matrix(2.3854 1.0749 1.0749 -2.3854 3469.562 2413.8706)" overflow="visible"/>
	
		<use xlink:href="#_x31_"  width="123.12" height="112.236" x="-61.56" y="-56.118" transform="matrix(2.5131 0.7276 0.7276 -2.5131 3151.4138 2296.8096)" overflow="visible"/>
	
		<use xlink:href="#_x31_"  width="123.12" height="112.236" x="-61.56" y="-56.118" transform="matrix(2.5902 0.3688 0.3688 -2.5902 2819.957 2225.6765)" overflow="visible"/>
	
		<use xlink:href="#_x31_"  width="123.12" height="112.236" x="-61.56" y="-56.118" transform="matrix(2.6164 0.003 0.003 -2.6164 2481.8625 2201.4578)" overflow="visible"/>
	
		<use xlink:href="#_x31_"  width="123.12" height="112.236" x="-61.56" y="-56.118" transform="matrix(2.5904 -0.3674 -0.3674 -2.5904 2143.7214 2225.1023)" overflow="visible"/>
	
		<use xlink:href="#_x31_"  width="123.12" height="112.236" x="-61.56" y="-56.118" transform="matrix(2.5123 -0.7306 -0.7306 -2.5123 1812.3245 2296.4282)" overflow="visible"/>
	
		<use xlink:href="#_x31_"  width="123.12" height="112.236" x="-61.56" y="-56.118" transform="matrix(2.3843 -1.0773 -1.0773 -2.3843 1494.3351 2413.8679)" overflow="visible"/>
	
		<use xlink:href="#_x31_"  width="123.12" height="112.236" x="-61.56" y="-56.118" transform="matrix(2.2097 -1.4008 -1.4008 -2.2097 1195.9943 2574.8235)" overflow="visible"/>
	
		<use xlink:href="#_x31_"  width="123.12" height="112.236" x="-61.56" y="-56.118" transform="matrix(1.9921 -1.6961 -1.6961 -1.9921 923.1089 2775.9497)" overflow="visible"/>
	
		<use xlink:href="#_x31_"  width="123.12" height="112.236" x="-61.56" y="-56.118" transform="matrix(1.7346 -1.9587 -1.9587 -1.7346 681.0638 3013.2976)" overflow="visible"/>
	
		<use xlink:href="#_x31_"  width="123.12" height="112.236" x="-61.56" y="-56.118" transform="matrix(1.441 -2.1837 -2.1837 -1.441 474.7966 3282.3203)" overflow="visible"/>
	
		<use xlink:href="#_x31_"  width="123.12" height="112.236" x="-61.56" y="-56.118" transform="matrix(1.1171 -2.3659 -2.3659 -1.1171 308.6469 3577.802)" overflow="visible"/>
	
		<use xlink:href="#_x31_"  width="123.12" height="112.236" x="-61.56" y="-56.118" transform="matrix(0.7711 -2.5001 -2.5001 -0.7711 186.0361 3893.8577)" overflow="visible"/>
	
		<use xlink:href="#_x31_"  width="123.12" height="112.236" x="-61.56" y="-56.118" transform="matrix(-2.4446 -0.9322 -0.9322 2.4446 109.1127 4224.0254)" overflow="visible"/>
	
		<use xlink:href="#_x31_"  width="123.12" height="112.236" x="-61.56" y="-56.118" transform="matrix(-2.5513 -0.58 -0.58 2.5513 433.5587 4322.2734)" overflow="visible"/>
	
		<use xlink:href="#_x31_"  width="123.12" height="112.236" x="-61.56" y="-56.118" transform="matrix(-2.6076 -0.2142 -0.2142 2.6076 768.601 4373.853)" overflow="visible"/>
	
		<use xlink:href="#_x31_"  width="123.12" height="112.236" x="-61.56" y="-56.118" transform="matrix(-2.6117 0.1555 0.1555 2.6117 1107.5662 4377.6528)" overflow="visible"/>
	
		<use xlink:href="#_x31_"  width="123.12" height="112.236" x="-61.56" y="-56.118" transform="matrix(-2.564 0.521 0.521 2.564 1443.6958 4333.71)" overflow="visible"/>
	
		<use xlink:href="#_x31_"  width="123.12" height="112.236" x="-61.56" y="-56.118" transform="matrix(-2.4654 0.8757 0.8757 2.4654 1770.329 4243.001)" overflow="visible"/>
	
		<use xlink:href="#_x31_"  width="123.12" height="112.236" x="-61.56" y="-56.118" transform="matrix(-2.3178 1.2136 1.2136 2.3178 2080.9856 4107.3159)" overflow="visible"/>
	
		<use xlink:href="#_x31_"  width="123.12" height="112.236" x="-61.56" y="-56.118" transform="matrix(-2.1236 1.5283 1.5283 2.1236 2369.4468 3929.2432)" overflow="visible"/>
	
		<use xlink:href="#_x31_"  width="123.12" height="112.236" x="-61.56" y="-56.118" transform="matrix(-1.8867 1.8126 1.8126 1.8867 2629.9006 3712.2515)" overflow="visible"/>
	
		<use xlink:href="#_x31_"  width="123.12" height="112.236" x="-61.56" y="-56.118" transform="matrix(-1.6145 2.0588 2.0588 1.6145 2857.2341 3460.7698)" overflow="visible"/>
	
		<use xlink:href="#_x31_"  width="123.12" height="112.236" x="-61.56" y="-56.118" transform="matrix(-1.3108 2.2643 2.2643 1.3108 3047.2578 3180.0825)" overflow="visible"/>
	
		<use xlink:href="#_x31_"  width="123.12" height="112.236" x="-61.56" y="-56.118" transform="matrix(-0.9771 2.4271 2.4271 0.9771 3195.8545 2875.4229)" overflow="visible"/>
	
		<use xlink:href="#_x31_"  width="123.12" height="112.236" x="-61.56" y="-56.118" transform="matrix(-0.6234 2.541 2.541 0.6234 3299.7856 2552.7627)" overflow="visible"/>
	
		<use xlink:href="#_x31_"  width="123.12" height="112.236" x="-61.56" y="-56.118" transform="matrix(-0.2591 2.6035 2.6035 0.2591 3357.0776 2218.6565)" overflow="visible"/>
	
		<use xlink:href="#_x31_"  width="123.12" height="112.236" x="-61.56" y="-56.118" transform="matrix(0.1083 2.6141 2.6141 -0.1083 3366.8594 1879.8079)" overflow="visible"/>
	
		<use xlink:href="#_x31_"  width="123.12" height="112.236" x="-61.56" y="-56.118" transform="matrix(0.4728 2.5733 2.5733 -0.4728 3329.1248 1542.9189)" overflow="visible"/>
	
		<use xlink:href="#_x31_"  width="123.12" height="112.236" x="-61.56" y="-56.118" transform="matrix(0.829 2.4816 2.4816 -0.829 3244.6008 1214.627)" overflow="visible"/>
	
		<use xlink:href="#_x31_"  width="123.12" height="112.236" x="-61.56" y="-56.118" transform="matrix(1.1706 2.3399 2.3399 -1.1706 3114.7568 901.4819)" overflow="visible"/>
	
		<use xlink:href="#_x31_"  width="123.12" height="112.236" x="-61.56" y="-56.118" transform="matrix(1.4904 2.1504 2.1504 -1.4904 2941.9397 609.8496)" overflow="visible"/>
	
		<use xlink:href="#_x31_"  width="123.12" height="112.236" x="-61.56" y="-56.118" transform="matrix(1.7796 1.9179 1.9179 -1.7796 2729.5352 345.6358)" overflow="visible"/>
	
		<use xlink:href="#_x31_"  width="123.12" height="112.236" x="-61.56" y="-56.118" transform="matrix(2.0297 1.651 1.651 -2.0297 2482.0652 113.9009)" overflow="visible"/>
</g>
</svg>
