<?xml version="1.0" standalone="no"?>
<!DOCTYPE svg PUBLIC "-//W3C//DTD SVG 20010904//EN"
 "http://www.w3.org/TR/2001/REC-SVG-20010904/DTD/svg10.dtd">
<svg version="1.0" xmlns="http://www.w3.org/2000/svg"
 width="1039.000000pt" height="1280.000000pt" viewBox="0 0 1039.000000 1280.000000"
 preserveAspectRatio="xMidYMid meet">
<metadata>
Created by potrace 1.15, written by Peter Selinger 2001-2017
</metadata>
<g transform="translate(0.000000,1280.000000) scale(0.100000,-0.100000)"
fill="#000000" stroke="none">
<path d="M2380 12785 c0 -9 188 -230 246 -290 27 -27 72 -81 99 -120 27 -38
82 -104 121 -145 40 -41 89 -104 109 -140 21 -36 73 -99 115 -141 48 -47 82
-89 89 -111 19 -58 108 -176 162 -214 27 -20 49 -43 49 -52 0 -26 56 -138 90
-181 17 -21 51 -53 76 -70 24 -18 44 -36 44 -42 0 -5 -17 -9 -37 -9 -21 -1
-51 -8 -68 -16 -16 -8 -21 -12 -10 -9 38 11 100 16 111 8 6 -4 14 -19 17 -33
5 -22 -1 -29 -46 -57 -37 -24 -53 -29 -59 -20 -5 8 -8 7 -8 -4 0 -9 -15 -28
-34 -43 -34 -26 -35 -26 -49 -6 -7 11 -17 17 -22 12 -4 -4 -5 1 -2 11 4 10 3
16 -3 12 -5 -3 -16 16 -25 42 -15 48 -15 48 -9 8 3 -22 16 -57 30 -77 29 -45
30 -55 7 -82 -18 -21 -18 -21 3 -3 11 9 24 14 29 10 4 -5 5 1 1 12 -6 16 -5
17 5 8 10 -10 6 -21 -15 -55 -23 -36 -23 -38 -4 -16 l24 28 23 -23 23 -22 -17
28 c-10 15 -16 30 -13 32 9 9 36 -51 29 -64 -12 -18 -128 -17 -174 3 -21 8
-35 11 -32 6 12 -20 107 -42 152 -35 50 7 50 7 0 -57 -27 -36 -32 -38 -90 -40
l-62 -1 55 -6 55 -6 -38 -22 c-20 -12 -59 -29 -85 -38 l-47 -15 50 7 c28 3 72
11 100 19 27 7 54 10 58 7 5 -3 12 -1 16 4 3 6 25 20 49 32 23 12 42 24 42 26
0 9 -38 -1 -52 -13 -8 -6 -18 -9 -21 -5 -4 3 -7 1 -7 -5 0 -9 -91 -42 -115
-42 -19 0 71 52 99 57 17 3 36 10 43 15 7 5 16 7 21 4 5 -3 22 8 37 24 16 17
36 30 44 30 11 -1 4 -12 -19 -32 -22 -19 -28 -28 -15 -24 19 7 19 6 -2 -16
-11 -13 -28 -38 -37 -56 -19 -36 -67 -242 -60 -253 4 -7 -8 -24 -88 -122 -17
-20 -32 -55 -38 -88 -16 -83 -127 -260 -374 -594 -77 -104 -162 -226 -188
-269 -53 -88 -112 -256 -102 -289 3 -11 22 -44 40 -73 23 -36 34 -65 34 -90 0
-33 7 -45 58 -91 69 -65 94 -73 132 -45 l28 21 -9 -35 c-6 -19 -7 -39 -4 -44
7 -12 129 -50 159 -50 35 0 83 36 128 96 96 128 122 150 201 169 81 19 161 57
299 141 51 31 122 67 158 79 36 13 143 60 239 104 95 45 175 80 176 79 2 -2
-10 -120 -26 -263 -19 -169 -36 -283 -50 -325 -51 -155 -258 -523 -353 -627
-33 -36 -137 -127 -231 -203 -176 -143 -227 -194 -266 -271 -12 -24 -31 -54
-41 -66 l-20 -21 -51 50 c-94 91 -230 194 -422 321 -258 169 -402 297 -483
430 -13 20 -35 40 -48 43 -34 9 -150 -22 -291 -77 -117 -46 -124 -48 -180 -39
-32 6 -67 7 -78 4 -79 -21 -219 -82 -244 -104 -32 -29 -86 -42 -236 -56 -84
-7 -165 -38 -369 -140 -180 -89 -258 -140 -268 -174 -4 -14 -13 -59 -19 -100
l-11 -75 -72 -71 c-57 -56 -85 -76 -133 -94 -50 -18 -64 -28 -72 -51 -9 -25
-32 -40 -153 -99 -78 -38 -146 -71 -151 -73 -11 -3 28 -106 51 -132 29 -34
105 -91 151 -115 84 -42 321 -100 412 -100 33 0 38 4 52 38 8 20 18 52 22 70
4 22 15 36 30 42 13 5 26 14 30 20 13 22 6 85 -18 155 -17 50 -21 76 -15 90
12 25 86 76 158 108 33 14 72 43 97 70 40 44 49 62 55 116 3 20 14 27 83 47
44 13 138 46 210 74 71 27 135 50 142 50 33 0 36 -147 6 -350 -12 -80 -29
-197 -38 -260 -9 -63 -43 -220 -76 -347 -32 -128 -59 -253 -59 -277 0 -66 25
-153 55 -187 14 -17 25 -37 25 -44 0 -7 14 -24 30 -37 25 -20 32 -36 45 -101
8 -43 20 -87 26 -98 11 -22 94 -84 186 -140 42 -25 66 -48 79 -75 13 -27 28
-41 49 -46 18 -5 41 -23 57 -47 72 -102 200 -231 230 -231 17 0 100 85 119
122 11 21 32 82 46 136 32 114 38 292 14 375 -12 42 -19 51 -52 64 -23 9 -46
28 -58 48 -38 65 -126 93 -157 50 -29 -40 -76 -85 -89 -85 -21 0 -25 55 -9
105 19 53 13 101 -16 138 -11 14 -20 31 -20 39 0 14 -30 62 -90 143 -20 28
-43 65 -50 83 -18 46 -8 129 29 246 50 156 114 493 115 611 l1 100 89 -85
c157 -151 472 -559 725 -940 93 -141 180 -289 276 -472 136 -259 141 -268 185
-291 65 -35 132 -50 195 -45 l55 5 56 -55 c32 -30 114 -99 182 -155 261 -209
541 -458 750 -665 69 -68 141 -129 183 -153 141 -84 341 -149 727 -234 114
-26 263 -64 332 -85 69 -22 157 -46 197 -54 40 -9 112 -32 160 -53 87 -36 90
-37 262 -42 l174 -6 35 -115 c19 -63 41 -139 50 -168 25 -88 143 -269 388
-597 84 -113 122 -175 195 -325 50 -102 104 -217 120 -256 15 -39 42 -97 59
-129 30 -57 31 -61 25 -159 -15 -243 -115 -556 -238 -745 -74 -113 -153 -206
-316 -372 -80 -81 -183 -187 -227 -236 -69 -74 -99 -98 -192 -151 -61 -34
-138 -83 -172 -108 -63 -46 -63 -47 -43 -100 2 -6 -20 -35 -49 -65 -29 -30
-69 -81 -88 -113 l-34 -59 34 -29 c126 -106 271 -143 447 -114 91 15 139 32
161 58 6 8 14 41 18 74 8 72 18 92 50 104 29 11 31 36 7 120 -13 48 -14 65 -5
85 14 31 67 55 104 48 30 -6 123 23 152 47 10 8 27 32 37 53 11 21 35 55 53
75 33 37 141 202 269 412 106 173 178 258 459 544 113 114 118 121 142 195 43
136 56 197 50 232 -6 30 0 25 50 -46 32 -44 71 -105 88 -135 18 -30 50 -79 72
-108 38 -51 40 -57 48 -160 20 -251 -28 -552 -123 -767 -48 -110 -151 -276
-260 -420 -41 -53 -95 -131 -121 -173 -88 -143 -128 -189 -242 -280 -61 -50
-129 -108 -150 -131 -36 -37 -38 -43 -28 -66 17 -38 15 -48 -19 -91 -30 -36
-77 -129 -94 -182 -6 -21 1 -26 80 -63 145 -68 240 -72 418 -17 80 25 103 37
128 66 30 34 31 38 25 101 -6 65 -6 66 26 92 l32 27 -17 41 c-9 22 -24 59 -33
81 -14 32 -15 44 -5 69 13 31 34 42 114 60 67 16 127 56 141 94 6 18 32 73 57
122 39 77 117 252 239 537 34 79 161 281 276 439 46 63 97 134 115 157 35 49
58 152 62 282 2 71 -1 81 -38 156 -23 43 -113 221 -202 395 -89 174 -171 347
-183 385 -11 38 -30 127 -40 197 -23 149 -27 132 76 312 99 172 152 234 249
292 95 57 141 101 256 246 127 158 175 260 200 418 6 41 20 107 30 148 10 41
19 94 19 118 0 41 1 43 29 43 17 0 33 -5 36 -11 4 -5 12 -8 18 -6 16 6 105
-28 127 -48 24 -22 58 -133 71 -232 14 -109 2 -211 -36 -318 -43 -117 -72
-256 -80 -375 -6 -77 -15 -115 -47 -199 -113 -295 -161 -541 -161 -831 0 -158
20 -355 43 -425 10 -30 10 -30 4 5 -37 239 -45 495 -19 689 20 154 59 321 106
459 68 195 71 195 64 -8 -4 -110 -13 -209 -25 -265 -10 -49 -22 -117 -25 -150
-4 -33 -18 -103 -31 -155 -12 -52 -25 -113 -28 -135 -3 -22 5 1 18 50 22 86
23 88 28 50 4 -35 5 -33 5 15 1 30 5 75 11 100 6 25 16 72 23 105 l14 60 12
-125 c15 -161 16 -366 1 -455 -6 -38 -11 -101 -11 -140 1 -61 0 -65 -7 -30
-29 146 -45 281 -29 250 7 -16 8 -13 4 14 -3 18 -6 59 -6 90 l-2 56 -8 -65
c-6 -43 -5 -100 3 -170 7 -58 12 -126 13 -152 0 -25 3 -44 7 -42 8 5 34 -115
48 -226 6 -47 29 -176 51 -288 21 -111 39 -229 39 -262 0 -33 4 -60 10 -60 6
0 10 -12 9 -27 l-1 -28 -9 25 c-8 22 -8 21 -4 -8 13 -92 28 -172 41 -217 35
-123 57 -261 64 -395 l8 -145 -3 160 c-2 88 -9 180 -15 205 -6 24 -13 63 -15
86 -3 23 -11 98 -19 166 -8 67 -18 166 -21 218 -3 52 -8 111 -10 130 l-4 35
11 -35 c7 -19 14 -37 17 -40 16 -14 50 -124 61 -195 6 -44 18 -116 25 -160 21
-127 26 -201 27 -397 1 -163 2 -174 10 -103 9 78 3 325 -9 375 -3 14 -3 22 0
19 4 -3 20 -52 37 -110 22 -76 30 -125 30 -184 0 -94 15 -203 32 -240 11 -23
13 -25 18 -9 5 12 10 -1 15 -36 6 -46 9 -51 15 -30 5 14 9 57 10 95 l2 70 13
-50 13 -50 1 47 c0 26 5 49 10 52 18 11 33 -24 29 -69 -4 -57 9 -59 19 -2 l7
42 9 -35 c4 -19 9 -43 10 -52 3 -37 15 -16 22 37 9 74 30 74 40 0 3 -30 10
-53 15 -50 11 7 20 -20 20 -58 0 -23 3 -28 11 -20 6 6 14 50 16 97 4 57 10 85
17 83 12 -4 29 -177 21 -220 -2 -15 -1 -25 4 -22 15 9 31 101 31 179 0 65 2
74 19 79 27 7 31 1 33 -52 l1 -46 6 54 c4 33 11 56 20 59 11 4 13 -8 7 -67 -7
-71 -7 -72 13 -61 12 6 21 15 21 20 0 6 4 10 9 10 6 0 6 -12 0 -32 -13 -48
-12 -52 17 -33 l27 17 -7 -38 c-6 -38 -6 -38 8 -14 9 14 15 39 16 57 0 51 40
203 67 261 49 100 40 236 -27 445 -15 48 -25 87 -21 87 22 -1 100 -185 102
-244 0 -12 3 -16 6 -7 7 17 -24 134 -48 182 -10 20 -30 50 -44 68 -15 17 -34
57 -42 89 -8 31 -30 89 -48 127 -40 85 -64 173 -55 200 5 15 12 3 30 -50 24
-74 86 -215 93 -215 3 0 -15 46 -39 103 -56 132 -91 267 -86 332 5 51 3 51 40
-2 7 -10 1 5 -12 32 -15 32 -26 79 -31 130 -11 126 -89 485 -102 472 -2 -2 10
-58 26 -123 27 -109 49 -227 66 -344 9 -67 -8 -40 -48 75 -95 274 -100 467
-32 1109 14 131 25 256 25 278 0 21 4 37 9 34 5 -3 14 61 21 142 11 117 11
193 2 377 -18 345 -27 408 -68 481 -27 48 -34 72 -34 115 0 65 -30 134 -86
199 -22 25 -59 71 -82 102 -45 59 -113 115 -197 164 -48 28 -54 29 -180 28
l-130 -1 -129 -57 c-71 -31 -130 -55 -131 -54 -2 2 -13 23 -25 48 -129 257
-450 555 -975 907 -261 175 -500 309 -980 551 -176 89 -339 173 -362 189 -30
19 -50 43 -68 80 -14 29 -64 97 -113 151 -157 174 -201 229 -206 264 -19 126
-17 138 19 98 10 -11 20 -18 22 -16 2 2 -23 56 -57 121 -33 65 -58 120 -56
123 3 2 20 -7 38 -21 34 -25 92 -57 104 -57 3 0 -11 21 -31 46 -35 42 -36 46
-14 39 57 -18 70 -26 81 -52 11 -27 12 -27 15 -5 4 22 17 23 71 6 19 -6 -7 40
-78 135 -78 106 -131 163 -192 207 -26 20 -48 41 -48 47 0 8 3 8 8 2 4 -5 18
-12 32 -14 29 -4 97 -37 123 -59 16 -15 17 -14 11 1 -5 13 -2 16 12 12 11 -4
1 4 -21 16 -54 29 -74 48 -90 85 -7 17 -33 54 -59 83 -25 28 -46 54 -46 57 0
11 37 -17 75 -56 22 -23 54 -51 70 -62 17 -11 4 3 -27 32 -69 62 -76 83 -13
40 49 -34 185 -104 190 -98 2 2 -29 20 -70 41 -40 21 -94 56 -118 78 -46 40
-63 49 -52 27 4 -7 -14 8 -39 34 -38 38 -46 53 -46 83 l0 36 79 -71 c43 -40
94 -81 112 -91 l34 -20 -31 28 c-18 15 -37 37 -42 49 -10 20 -10 20 36 -3 26
-12 67 -25 92 -27 25 -2 37 -2 28 1 -10 2 -18 10 -18 16 0 9 -2 9 -8 1 -12
-19 -93 11 -132 49 -63 62 -107 122 -115 157 -4 19 -23 65 -41 102 -19 37 -34
70 -34 73 0 11 33 4 71 -16 33 -16 46 -32 69 -82 15 -34 26 -64 23 -67 -7 -7
-71 68 -93 110 -11 19 -19 30 -20 24 0 -18 56 -98 99 -139 22 -21 42 -48 42
-60 1 -17 2 -18 6 -2 5 18 6 18 26 0 12 -10 9 -3 -7 14 -16 17 -39 58 -52 90
l-23 58 35 -40 c20 -22 60 -89 91 -150 30 -60 52 -99 48 -85 -14 57 -99 211
-146 263 -28 32 -47 57 -43 57 19 0 153 -89 189 -125 23 -22 53 -65 68 -95 15
-30 27 -48 27 -42 0 24 -42 95 -83 139 -23 25 -83 69 -134 99 -85 51 -116 74
-96 74 10 0 82 -19 103 -27 8 -3 29 -6 45 -8 17 -1 64 -5 105 -8 71 -6 72 -5
20 4 -62 11 -93 15 -131 17 -27 2 -119 65 -119 82 0 5 15 3 33 -4 17 -8 48
-17 67 -21 19 -4 46 -17 60 -29 l25 -21 -19 22 c-18 22 -18 22 21 26 l38 4
-41 1 c-33 2 -53 11 -90 42 -52 43 -180 115 -204 115 -18 0 -50 37 -50 58 0
45 12 48 52 11 22 -19 60 -44 84 -55 25 -10 62 -31 82 -45 l37 -26 -30 26
c-17 15 -24 26 -16 26 8 0 -13 25 -47 56 -35 31 -67 65 -73 77 l-11 20 33 -20
c19 -12 60 -24 91 -28 46 -5 62 -12 78 -33 16 -20 18 -21 11 -5 -9 19 -8 22
12 26 20 4 20 4 -4 6 -19 1 -35 15 -62 54 -20 28 -61 77 -92 107 -30 30 -55
58 -55 62 0 5 29 -14 65 -42 64 -48 105 -75 105 -67 0 2 -21 19 -47 38 -64 46
-122 98 -135 123 -7 13 4 7 32 -16 51 -44 100 -69 151 -75 30 -4 40 -11 48
-32 9 -22 9 -20 4 14 -7 49 -57 194 -88 255 -12 25 -30 63 -39 84 l-16 39 20
-18 c12 -11 37 -51 55 -90 19 -38 35 -64 35 -57 0 45 -128 230 -151 216 -5 -3
-17 0 -26 6 -16 10 -15 11 4 7 13 -3 26 -1 29 4 10 16 23 10 38 -18 8 -16 15
-24 16 -20 0 5 -5 17 -10 27 -8 15 -6 21 11 30 11 7 27 9 35 6 8 -3 13 -2 10
3 -3 4 15 22 39 40 24 17 47 37 51 43 4 6 -14 -5 -41 -25 -54 -42 -70 -46 -62
-18 3 14 1 18 -9 14 -27 -10 -14 17 16 32 42 22 38 28 -5 8 l-35 -17 -48 46
c-26 25 -75 60 -109 79 -35 18 -65 40 -68 47 -4 10 0 12 12 7 10 -4 38 -9 63
-11 45 -3 45 -3 -7 7 -29 6 -53 14 -53 17 1 4 14 22 30 41 l29 34 40 -32 c22
-18 59 -53 82 -79 23 -26 37 -38 31 -27 -5 11 -40 49 -77 84 l-66 64 23 43
c20 38 27 44 56 44 68 0 134 -58 163 -142 10 -29 18 -44 19 -32 0 34 -50 123
-84 148 -17 13 -44 28 -61 34 -27 9 -28 10 -6 11 42 2 100 -21 144 -57 l42
-34 -45 43 c-25 24 -44 46 -43 49 2 7 -46 13 -104 14 -22 1 -39 4 -37 7 6 10
-145 30 -174 22 -26 -6 -25 -4 16 40 23 26 42 50 42 54 0 5 -11 -5 -24 -22
-21 -26 -27 -28 -52 -20 -15 6 -27 15 -26 20 3 14 93 43 166 55 l61 9 -62 -4
c-34 -3 -93 -15 -132 -28 -39 -14 -73 -21 -76 -17 -2 4 15 13 38 19 23 7 57
24 75 38 31 23 40 25 110 21 50 -4 69 -2 53 3 -38 15 -162 12 -215 -4 -38 -12
-52 -13 -67 -4 -33 21 -30 36 9 46 74 19 76 20 27 15 -84 -10 -90 -10 -90 6 0
8 -9 19 -20 24 -18 7 -17 10 15 22 l35 14 -33 -6 c-30 -5 -37 -1 -74 40 -22
26 -53 53 -69 61 -47 25 -46 17 3 -14 25 -16 55 -43 67 -60 l22 -31 -23 0
c-44 0 -111 53 -167 133 -13 19 -13 20 10 14 13 -4 51 -9 84 -12 60 -5 60 -5
15 6 -25 5 -52 13 -60 16 -8 3 -21 5 -28 4 -19 -3 -59 25 -72 50 -11 20 -11
20 17 3 15 -10 34 -22 41 -28 15 -11 20 -11 142 -20 l85 -6 -95 14 c-52 8
-106 19 -120 24 -14 6 -52 38 -85 72 -33 34 -55 61 -50 58 6 -2 35 -16 66 -31
77 -37 136 -44 184 -21 21 10 33 20 26 22 -8 3 -16 0 -20 -5 -11 -18 -51 -25
-94 -17 l-42 8 35 7 c30 6 29 6 -10 4 -37 -3 -59 4 -122 38 -43 23 -78 45 -78
50 0 14 38 7 51 -10 17 -20 99 -73 113 -73 5 0 -10 13 -35 29 -78 53 -86 60
-69 71 12 8 9 10 -12 10 -15 0 -30 5 -33 11 -11 16 68 -1 250 -56 11 -3 2 3
-21 14 -45 21 -196 61 -230 61 -31 0 -40 18 -18 36 17 13 16 13 -9 2 -21 -9
-30 -9 -39 0 -16 16 -6 23 43 29 31 5 40 3 35 -6 -6 -8 -1 -10 16 -6 16 4 53
-5 102 -25 43 -17 81 -29 83 -26 2 2 -31 18 -74 34 -60 23 -74 32 -59 38 11 4
46 -2 85 -14 37 -12 74 -22 82 -21 8 0 -15 10 -51 22 -60 20 -62 22 -32 25 36
4 137 -23 147 -38 3 -6 14 -10 23 -10 43 1 -94 52 -151 56 -92 7 -127 14 -127
24 0 6 41 11 93 11 l92 2 -75 12 c-52 9 -89 10 -121 4 -30 -7 -55 -6 -73 1
-15 5 -35 10 -44 9 -9 0 -2 -5 16 -10 33 -10 36 -29 4 -29 -9 0 -31 -9 -49
-20 -40 -24 -53 -9 -16 19 16 12 20 18 10 15 -13 -5 -16 -2 -11 10 3 9 9 16
13 16 4 0 13 11 19 24 12 26 36 33 177 47 73 7 70 7 -31 4 -62 -3 -124 -10
-138 -16 -31 -15 -37 -11 -29 19 5 20 12 22 87 24 l81 2 -77 3 -78 4 -2 62
c-1 43 -2 50 -5 22 -6 -73 -12 -88 -33 -82 -11 3 -20 1 -20 -3 0 -6 -52 -30
-66 -30 -2 0 -4 11 -4 25 0 37 -37 126 -66 160 l-26 30 21 -32 c27 -40 54
-104 47 -110 -2 -3 -14 12 -25 34 -11 21 -34 54 -51 73 l-31 35 25 -36 c32
-44 58 -117 51 -140 -3 -9 -1 -20 5 -24 11 -7 14 -48 3 -59 -4 -3 -8 -14 -9
-24 -2 -11 4 -8 17 11 12 15 25 27 30 27 11 0 9 -89 -2 -96 -4 -2 -21 11 -39
29 -27 29 -32 42 -34 95 -2 54 -1 60 13 49 12 -9 12 -6 -2 13 -10 14 -24 39
-32 55 -10 22 -14 25 -15 11 0 -19 0 -19 -21 0 -12 10 -36 52 -55 91 -38 84
-74 135 -118 165 -22 16 -16 6 22 -35 45 -49 110 -162 99 -173 -2 -2 -23 10
-48 27 -43 30 -23 9 35 -36 24 -19 29 -32 33 -76 l4 -54 -60 92 c-34 51 -61
97 -61 101 0 17 -143 113 -167 112 -4 -1 6 -8 22 -16 77 -41 108 -71 185 -186
79 -119 89 -138 70 -138 -5 0 -10 7 -10 15 0 9 -13 30 -30 48 -16 17 -43 51
-59 73 -28 40 -163 144 -186 144 -6 0 -33 25 -59 55 -45 53 -102 93 -114 81
-3 -3 -1 -6 4 -6 5 0 15 -4 23 -9 11 -7 10 -14 -7 -38 -17 -24 -27 -29 -51
-25 -17 2 -31 8 -31 14 0 14 30 68 38 68 4 0 13 9 20 21 13 21 13 21 -12 3
-33 -24 -66 -102 -66 -153 0 -45 -16 -53 -43 -23 -27 29 -24 45 8 53 30 8 30
8 -5 6 -28 -2 -35 2 -42 23 l-7 25 2 -25 c3 -49 -18 -34 -35 25 -16 55 -17 56
-12 15 4 -25 13 -60 20 -79 8 -19 13 -36 10 -38 -6 -7 -44 91 -51 134 -4 24
-2 50 4 62 6 11 7 22 3 25 -13 8 -32 -64 -22 -83 4 -9 13 -36 20 -60 6 -23 14
-49 17 -57 3 -9 -2 -14 -15 -14 -25 0 -32 18 -33 83 -1 38 -3 45 -8 27 -4 -14
-4 -44 0 -68 6 -41 5 -43 -15 -37 -12 4 -47 13 -79 20 -33 8 -61 16 -64 18 -2
3 15 12 39 20 24 9 36 16 27 16 -9 1 -33 -6 -52 -14 -34 -14 -39 -14 -83 10
-26 14 -54 25 -63 24 -9 0 -2 -6 14 -12 17 -7 41 -19 55 -27 l25 -14 -50 -13
c-43 -11 -44 -12 -11 -8 38 4 38 4 20 -16 -19 -21 -80 -24 -78 -4 3 19 -58 96
-99 127 -56 40 -121 68 -162 68 -27 0 -35 5 -45 29 -28 69 -171 178 -257 196
-18 3 -35 14 -38 25 -10 32 -138 144 -205 179 -38 20 -92 63 -134 105 -39 40
-102 93 -141 118 -38 26 -88 65 -110 88 -22 23 -92 84 -155 135 -63 51 -126
105 -140 120 -35 38 -140 128 -140 120z m2300 -1246 c16 -18 30 -35 30 -39 0
-6 -87 17 -98 26 -7 5 19 44 28 44 6 0 23 -14 40 -31z m-112 -25 c15 -4 22
-14 22 -30 0 -13 -5 -24 -11 -24 -5 0 -8 -4 -5 -9 4 -5 0 -12 -6 -14 -8 -3 -6
-6 5 -6 10 -1 17 -9 17 -21 0 -16 -4 -18 -22 -11 -31 11 -45 42 -40 85 4 38 5
39 40 30z m104 -20 c51 -15 62 -22 83 -59 14 -23 25 -44 25 -48 0 -3 -27 4
-60 16 -37 14 -60 28 -60 37 0 12 -2 12 -9 1 -15 -23 -51 4 -51 39 0 35 -3 35
72 14z m-492 -47 c0 -10 -77 -3 -88 8 -4 4 4 15 17 26 24 20 24 20 48 -2 12
-13 23 -27 23 -32z m73 33 c5 0 5 -4 2 -10 -4 -6 8 -10 28 -10 19 0 40 -7 48
-16 11 -14 9 -15 -27 -9 -21 4 -46 9 -54 12 -8 3 -23 5 -33 4 -18 -2 -57 25
-57 39 0 4 19 4 43 -1 23 -4 46 -8 50 -9z m195 -29 c-14 -5 -39 29 -31 42 3 5
14 -1 24 -14 12 -16 14 -25 7 -28z m-62 -1 c9 0 12 -4 9 -10 -3 -5 -3 -10 2
-11 4 0 16 -2 26 -4 9 -2 17 1 17 6 0 5 14 3 30 -6 35 -18 40 -29 9 -20 -36
12 -54 13 -60 3 -3 -5 -23 6 -45 23 -21 18 -31 29 -21 26 10 -4 25 -7 33 -7z
m466 -47 c44 -32 118 -121 118 -143 0 -5 6 -7 13 -4 7 2 21 -10 31 -27 l18
-31 -28 4 c-22 2 -34 13 -53 47 -14 25 -27 39 -29 32 -2 -7 4 -21 13 -31 9
-10 15 -27 12 -37 -3 -14 -8 -9 -20 19 -9 20 -21 40 -27 43 -6 4 -8 10 -5 15
5 9 -50 60 -66 60 -9 0 -55 67 -66 97 -5 13 -3 14 18 3 13 -7 45 -28 71 -47z
m-211 17 c11 0 42 -60 35 -67 -11 -12 -71 34 -74 56 -3 19 0 22 13 17 9 -3 21
-6 26 -6z m-144 -29 c14 -1 43 -29 43 -42 0 -17 -31 -9 -55 15 -14 14 -26 19
-28 13 -2 -6 -6 -4 -9 5 -5 11 -1 15 15 13 12 -1 27 -3 34 -4z m69 -19 c-4 -3
-14 2 -24 12 -16 18 -16 18 6 6 13 -6 21 -14 18 -18z m190 -38 c36 -36 63 -68
60 -71 -3 -3 -12 0 -21 7 -9 7 -18 10 -21 7 -3 -3 9 -13 28 -23 18 -9 27 -19
20 -21 -6 -3 -9 -10 -6 -16 4 -7 -11 7 -33 31 -22 23 -45 42 -51 42 -7 0 -12
5 -12 10 0 6 12 3 28 -7 24 -16 26 -16 14 -1 -8 10 -22 20 -33 23 -21 7 -66
85 -49 85 6 0 40 -30 76 -66z m9 39 c19 -9 35 -21 35 -25 0 -5 -6 -6 -12 -2
-7 3 -1 -5 14 -18 15 -14 25 -28 23 -32 -3 -3 -2 -4 2 -1 3 3 17 -5 30 -17 13
-12 23 -17 23 -10 0 6 -17 24 -37 41 -20 17 -35 33 -32 35 7 7 79 -42 77 -52
-1 -4 6 -22 16 -41 16 -29 16 -35 3 -48 -13 -13 -16 -11 -25 16 -6 17 -16 31
-21 31 -6 0 -8 -6 -5 -14 3 -8 1 -16 -3 -19 -5 -3 -10 3 -10 14 -2 21 -62 100
-103 136 -30 27 -23 29 25 6z m-161 -9 c5 -14 4 -15 -9 -4 -17 14 -19 20 -6
20 5 0 12 -7 15 -16z m55 -18 c15 -8 34 -22 42 -32 13 -15 12 -16 -11 -9 -34
10 -70 33 -70 45 0 13 6 13 39 -4z m-94 -6 c3 -5 1 -10 -4 -10 -6 0 -11 5 -11
10 0 6 2 10 4 10 3 0 8 -4 11 -10z m50 -20 c10 -11 16 -20 13 -20 -3 0 -13 9
-23 20 -10 11 -16 20 -13 20 3 0 13 -9 23 -20z m500 -43 c15 -24 33 -137 20
-137 -4 0 -19 10 -34 23 -23 19 -28 31 -30 82 -1 33 -5 64 -8 68 -12 20 38
-15 52 -36z m-435 18 c24 -13 24 -14 4 -15 -12 0 -27 7 -34 15 -16 19 -3 19
30 0z m540 -103 c0 -7 -4 -10 -10 -7 -5 3 -10 16 -10 28 0 18 2 19 10 7 5 -8
10 -21 10 -28z m120 14 c0 -15 -24 -66 -32 -66 -5 0 -6 -5 -2 -12 4 -6 3 -8
-3 -5 -12 7 -5 56 10 75 9 11 27 17 27 8z m-54 -51 c-4 -20 -14 -39 -22 -42
-7 -3 -14 -9 -14 -15 0 -5 5 -6 11 -2 9 5 10 -2 5 -22 -3 -16 -9 -40 -11 -52
l-6 -24 29 21 c34 24 50 16 25 -13 -10 -11 1 -5 24 13 28 21 57 34 83 36 22 2
45 7 50 10 13 8 70 -14 70 -26 0 -9 -2 -10 -90 -15 -93 -5 -96 -6 -96 -24 0
-11 6 -15 17 -13 25 7 34 -16 13 -32 -13 -9 -24 -10 -37 -4 -9 6 -22 7 -27 4
-6 -4 -13 0 -16 9 -3 8 -11 13 -18 10 -26 -10 -43 48 -38 129 4 69 7 79 26 87
28 10 30 7 22 -35z m-1686 15 c-20 -13 -33 -13 -25 0 3 6 14 10 23 10 15 0 15
-2 2 -10z m-1 -33 c-15 -12 -38 -35 -52 -52 l-24 -29 -18 34 c-10 19 -14 32
-10 27 5 -4 16 0 26 9 17 15 62 32 89 33 10 0 6 -8 -11 -22z m1751 -2 c-7 -8
-17 -15 -22 -15 -6 0 -5 7 2 15 7 8 17 15 22 15 6 0 5 -7 -2 -15z m-1716 -3
c2 -4 -4 -27 -14 -50 -14 -31 -25 -42 -41 -42 -21 0 -21 1 -4 28 l18 27 -27
-24 c-38 -35 -32 -18 10 29 36 40 49 47 58 32z m-174 -62 c-15 -21 -26 -28
-33 -21 -6 6 0 18 19 34 37 32 42 27 14 -13z m1859 17 c-14 -26 -49 -62 -49
-50 0 5 7 19 16 31 8 12 13 26 10 30 -2 4 4 9 15 9 16 2 18 -1 8 -20z m-1659
-2 c0 -19 -29 -65 -40 -65 -8 0 2 50 15 70 9 15 25 12 25 -5z m-155 -22 c0 -6
3 -14 7 -18 4 -4 4 -13 2 -20 -4 -10 -12 -11 -35 -3 -34 12 -35 15 -12 40 17
19 38 19 38 1z m90 -43 c-3 -5 -14 -10 -23 -9 -14 0 -13 2 3 9 27 11 27 11 20
0z m1835 -85 l23 -24 -28 -11 c-20 -8 -31 -8 -39 0 -8 8 -5 9 9 5 19 -6 19 -5
-2 13 -16 14 -19 22 -10 31 16 16 20 14 47 -14z m-1967 -41 c-19 -41 -31 -54
-50 -54 -7 0 4 22 25 50 20 27 38 48 40 46 1 -2 -5 -21 -15 -42z m57 17 c0
-10 -49 -55 -54 -50 -2 2 2 19 9 36 10 23 19 31 29 27 9 -3 16 -9 16 -13z
m1927 -51 c14 -11 30 -17 37 -13 6 3 8 2 3 -2 -4 -5 12 -28 35 -52 41 -42 38
-62 -4 -23 -24 22 -38 26 -38 9 0 -5 -4 -7 -10 -4 -5 3 -10 15 -10 25 0 10
-12 32 -26 49 -29 35 -24 40 13 11z m-1977 -284 c-29 -49 -35 -45 -10 5 12 23
24 38 27 35 3 -2 -5 -21 -17 -40z m2273 -71 c12 -2 33 -6 46 -7 14 -2 26 -9
29 -16 3 -10 -5 -12 -34 -7 -87 15 -111 25 -122 50 -20 44 -13 48 23 16 20
-17 45 -33 58 -36z m101 -55 c8 -8 5 -16 -14 -30 -33 -26 -34 -26 -78 15 l-37
34 59 -3 c32 -3 63 -9 70 -16z m44 -53 l22 -24 -25 -11 c-22 -10 -30 -9 -50 5
-30 22 -31 27 -2 41 31 15 31 15 55 -11z m146 -7 c-14 -14 -114 -50 -139 -50
-20 1 -20 1 -1 15 11 8 29 12 39 9 12 -4 17 -2 13 4 -4 7 11 15 36 20 59 13
64 14 52 2z m-184 -117 c0 -5 32 -6 71 -5 80 4 82 -1 17 -49 -47 -33 -88 -39
-88 -11 0 9 -7 29 -14 45 -13 23 -13 27 0 27 8 0 14 -3 14 -7z m267 -58 c23
-3 43 -9 43 -13 -1 -13 -147 -72 -181 -73 -34 -2 -34 -2 6 -9 35 -6 37 -7 10
-9 -23 -1 -27 -4 -15 -11 8 -5 24 -7 35 -5 11 3 33 -1 48 -8 l28 -12 -37 -37
-36 -38 -21 28 c-29 38 -55 60 -99 84 -45 25 -50 42 -10 35 l27 -6 -27 12
c-31 12 -38 32 -10 25 10 -3 35 7 56 22 40 28 79 31 183 15z m23 -49 c0 -3 -9
-21 -21 -40 -18 -31 -25 -35 -47 -30 -45 11 -44 19 5 47 47 26 63 32 63 23z
m-121 -290 c11 -22 19 -41 17 -43 -6 -7 -78 62 -91 87 -6 14 -15 39 -19 55 -6
29 -5 29 34 -15 22 -25 49 -63 59 -84z m83 27 c27 -29 68 -92 68 -105 0 -14
-55 -8 -77 7 -17 12 -43 85 -43 120 0 14 30 1 52 -22z m86 -49 c47 -40 51 -49
23 -57 -15 -4 -27 7 -50 44 -17 27 -27 49 -22 49 4 0 26 -16 49 -36z m-167
-26 c40 -33 53 -62 22 -52 -10 3 -7 -1 7 -9 14 -8 39 -16 55 -18 33 -4 55 -16
55 -31 0 -6 -15 -8 -37 -4 -21 4 -50 8 -65 9 -14 1 -30 6 -34 10 -5 4 0 5 11
2 17 -6 16 -4 -4 13 -21 17 -67 112 -54 112 2 0 22 -14 44 -32z m83 -47 c3 -5
24 -7 46 -4 24 3 40 2 40 -5 0 -14 -37 -21 -49 -9 -8 8 -11 8 -11 0 0 -6 -11
-8 -25 -5 -14 2 -25 11 -25 18 0 16 16 19 24 5z m146 -1 c0 -5 -4 -10 -9 -10
-5 0 -16 -3 -25 -6 -11 -4 -16 -1 -16 10 0 10 9 16 25 16 14 0 25 -4 25 -10z
m15 -43 c-9 -5 -24 -7 -34 -4 -9 2 -23 -2 -30 -10 -9 -10 -17 -11 -23 -5 -13
13 0 35 16 29 7 -3 23 1 36 8 18 10 28 10 38 2 11 -8 10 -12 -3 -20z m-105
-60 c28 -14 52 -35 65 -57 l20 -35 -40 31 c-42 33 -78 54 -92 54 -4 0 8 -10
27 -21 19 -12 50 -35 68 -52 36 -35 96 -147 78 -147 -21 0 -74 38 -100 72 -88
113 -105 142 -93 151 8 6 6 7 -5 3 -10 -3 -18 -1 -18 4 0 6 -4 10 -9 10 -14 0
97 -158 140 -201 20 -19 51 -40 70 -45 31 -9 36 -16 61 -87 l27 -77 -27 0
c-15 0 -46 9 -69 20 -49 22 -139 102 -146 130 -4 15 4 13 45 -16 39 -26 60
-34 92 -33 42 1 39 3 -27 14 -75 12 -163 120 -186 225 -19 87 -17 91 32 84 23
-3 62 -16 87 -27z m-56 -324 c6 -18 4 -20 -14 -16 -15 4 -20 14 -20 41 0 34 1
35 14 17 7 -11 16 -30 20 -42z m10 -45 c9 -12 19 -37 22 -55 8 -45 24 -52 17
-8 -3 19 -1 35 4 35 18 0 159 -167 149 -177 -2 -3 -31 3 -63 12 -42 12 -74 30
-113 64 -50 44 -54 50 -56 99 -4 58 12 70 40 30z m141 -506 c-1 -2 -20 2 -41
8 -31 9 -52 28 -99 88 -94 120 -70 124 45 8 54 -55 97 -102 95 -104z m-130
167 c5 -16 9 -18 15 -9 6 10 25 3 77 -28 37 -22 82 -53 98 -67 l30 -25 -30 6
c-55 12 -125 46 -145 71 -10 13 -22 24 -27 24 -11 1 -43 30 -43 41 0 17 19 7
25 -13z m-16 -75 c24 -30 41 -57 38 -60 -7 -7 -95 38 -101 51 -5 15 4 65 13
65 3 0 26 -25 50 -56z m-24 -54 c10 -11 23 -19 29 -17 14 5 70 -22 62 -30 -3
-3 2 -12 12 -20 16 -14 16 -14 -3 -8 -48 17 -81 28 -92 31 -14 4 -47 64 -35
64 5 0 17 -9 27 -20z m26 -192 c19 -43 37 -70 67 -101 41 -45 102 -126 102
-139 0 -5 -32 18 -70 52 -70 62 -93 98 -109 172 -10 43 -6 49 10 16z m19 -218
c0 -5 -2 -10 -4 -10 -3 0 -8 5 -11 10 -3 6 -1 10 4 10 6 0 11 -4 11 -10z m31
-37 c13 -16 12 -17 -3 -4 -10 7 -18 15 -18 17 0 8 8 3 21 -13z m101 -168 c5
-11 -2 -6 -16 10 -14 17 -25 35 -25 40 0 11 25 -20 41 -50z m15 -217 c53 -50
138 -166 129 -176 -3 -2 -25 4 -51 13 -37 15 -51 28 -79 74 -53 87 -77 141
-66 141 6 0 36 -24 67 -52z m210 -204 c-7 -7 -37 7 -37 17 0 6 9 5 21 -1 11
-7 19 -14 16 -16z m2688 -2864 c3 -5 -1 -10 -9 -10 -9 0 -16 5 -16 10 0 6 4
10 9 10 6 0 13 -4 16 -10z m285 -189 c13 -48 5 -50 -19 -4 -11 21 -20 35 -21
31 0 -4 23 -50 50 -104 49 -95 50 -99 49 -183 0 -47 -3 -104 -8 -126 -6 -35
-8 -27 -14 55 -4 52 -14 115 -22 140 l-14 45 6 -61 c4 -42 1 -69 -8 -87 -13
-23 -14 -15 -13 86 1 86 -3 125 -17 167 -11 30 -17 62 -14 71 3 10 1 20 -5 24
-5 3 -10 11 -10 17 0 23 50 -37 60 -71z m27 -388 c4 -89 2 -104 -23 -168 -14
-38 -33 -90 -40 -115 -9 -27 -12 -33 -10 -15 16 115 16 113 2 60 -8 -27 -15
-68 -15 -90 -1 -43 -35 -107 -44 -83 -3 7 -6 0 -6 -17 -1 -16 -5 -36 -10 -44
-6 -9 -8 25 -6 85 2 75 9 118 28 173 14 40 23 80 20 89 -4 13 -3 14 5 4 7 -10
14 7 27 60 18 76 54 172 62 164 3 -2 7 -49 10 -103z m-50 -460 c-2 -16 -4 -3
-4 27 0 30 2 43 4 28 2 -16 2 -40 0 -55z m-48 -65 c-7 -130 -36 -259 -50 -222
-11 28 -10 139 1 209 9 59 37 135 49 135 3 0 3 -55 0 -122z m28 30 c-2 -13 -4
-5 -4 17 -1 22 1 32 4 23 2 -10 2 -28 0 -40z m25 -50 c-2 -27 -8 -48 -13 -48
-6 0 -7 16 -4 38 13 78 24 84 17 10z m-115 0 c-3 -8 -6 -5 -6 6 -1 11 2 17 5
13 3 -3 4 -12 1 -19z m78 -185 c-8 -32 -19 -85 -26 -118 -10 -51 -13 -56 -20
-35 -13 47 -9 93 18 184 25 82 28 87 34 58 3 -17 1 -58 -6 -89z m-78 -80 c-2
-16 -4 -5 -4 22 0 28 2 40 4 28 2 -13 2 -35 0 -50z m25 -116 c0 -29 -4 -178
-9 -332 -8 -279 -8 -280 -14 -135 -4 80 -10 211 -14 293 -6 111 -5 161 5 203
16 67 32 52 32 -29z m-12 -756 c0 -27 5 -73 10 -102 6 -32 8 -101 4 -168 l-7
-115 -14 45 c-18 58 -28 225 -19 322 8 84 26 96 26 18z m764 -409 c12 -23 16
-51 14 -95 l-3 -62 -43 150 c-48 171 -55 226 -13 115 15 -41 36 -90 45 -108z
m-745 -59 c12 -50 25 -160 17 -152 -6 5 -36 160 -36 182 0 19 10 3 19 -30z
m735 -60 c14 -50 25 -111 25 -135 -1 -26 -3 -33 -6 -18 -2 14 -12 50 -22 80
-17 51 -39 181 -28 170 2 -3 16 -46 31 -97z m-637 -650 c-3 -10 -5 -4 -5 12 0
17 2 24 5 18 2 -7 2 -21 0 -30z"/>
<path d="M4880 11254 c0 -5 7 -19 15 -30 8 -10 15 -14 15 -8 0 5 -7 19 -15 30
-8 10 -15 14 -15 8z"/>
<path d="M5374 11034 c-18 -14 -18 -14 6 -3 31 14 36 19 24 19 -6 0 -19 -7
-30 -16z"/>
<path d="M6134 8806 c11 -9 24 -16 30 -16 12 0 7 5 -24 19 -24 11 -24 11 -6
-3z"/>
<path d="M9422 4248 c-49 -129 -83 -242 -81 -269 0 -8 11 22 23 66 13 44 44
136 70 204 26 68 45 125 43 128 -3 2 -27 -56 -55 -129z"/>
<path d="M4422 11600 c0 -14 2 -19 5 -12 2 6 2 18 0 25 -3 6 -5 1 -5 -13z"/>
<path d="M4263 11553 c9 -2 23 -2 30 0 6 3 -1 5 -18 5 -16 0 -22 -2 -12 -5z"/>
<path d="M5341 11364 c0 -11 3 -14 6 -6 3 7 2 16 -1 19 -3 4 -6 -2 -5 -13z"/>
<path d="M3341 11234 c0 -11 3 -14 6 -6 3 7 2 16 -1 19 -3 4 -6 -2 -5 -13z"/>
<path d="M5212 11130 c0 -14 2 -19 5 -12 2 6 2 18 0 25 -3 6 -5 1 -5 -13z"/>
<path d="M5715 11070 c27 -12 43 -12 25 0 -8 5 -22 9 -30 9 -10 0 -8 -3 5 -9z"/>
<path d="M5690 10940 c8 -5 20 -10 25 -10 6 0 3 5 -5 10 -8 5 -19 10 -25 10
-5 0 -3 -5 5 -10z"/>
<path d="M5545 10898 c17 -6 46 -21 65 -33 56 -35 108 -57 122 -52 9 3 6 7 -7
11 -11 4 -56 25 -100 47 -44 21 -87 39 -95 38 -8 0 -1 -5 15 -11z"/>
<path d="M5783 10653 c9 -2 23 -2 30 0 6 3 -1 5 -18 5 -16 0 -22 -2 -12 -5z"/>
<path d="M5638 10633 c7 -3 16 -2 19 1 4 3 -2 6 -13 5 -11 0 -14 -3 -6 -6z"/>
<path d="M5930 10540 c-9 -6 -10 -10 -3 -10 6 0 15 5 18 10 8 12 4 12 -15 0z"/>
<path d="M6341 9434 c0 -11 3 -14 6 -6 3 7 2 16 -1 19 -3 4 -6 -2 -5 -13z"/>
<path d="M6351 9394 c0 -11 3 -14 6 -6 3 7 2 16 -1 19 -3 4 -6 -2 -5 -13z"/>
<path d="M6330 9196 c0 -3 9 -10 20 -16 11 -6 20 -8 20 -6 0 3 -9 10 -20 16
-11 6 -20 8 -20 6z"/>
<path d="M6413 9073 c9 -2 23 -2 30 0 6 3 -1 5 -18 5 -16 0 -22 -2 -12 -5z"/>
<path d="M6522 8375 c0 -16 2 -22 5 -12 2 9 2 23 0 30 -3 6 -5 -1 -5 -18z"/>
<path d="M6418 8103 c7 -3 16 -2 19 1 4 3 -2 6 -13 5 -11 0 -14 -3 -6 -6z"/>
<path d="M6483 8093 c9 -2 23 -2 30 0 6 3 -1 5 -18 5 -16 0 -22 -2 -12 -5z"/>
<path d="M9277 4855 c68 -83 96 -153 112 -279 7 -53 9 -56 10 -19 3 105 -51
242 -120 308 l-42 40 40 -50z"/>
<path d="M10085 3740 c20 -240 28 -384 35 -675 l8 -330 -3 380 c-3 257 -9 427
-20 525 -16 149 -29 216 -20 100z"/>
<path d="M10011 2992 c-3 -42 76 -289 133 -417 13 -27 29 -65 36 -83 7 -18 14
-31 16 -29 2 2 -23 71 -56 155 -53 135 -91 248 -119 352 -5 19 -10 29 -10 22z"/>
<path d="M9181 2854 c0 -11 3 -14 6 -6 3 7 2 16 -1 19 -3 4 -6 -2 -5 -13z"/>
<path d="M10200 2445 c0 -5 5 -17 10 -25 5 -8 10 -10 10 -5 0 6 -5 17 -10 25
-5 8 -10 11 -10 5z"/>
<path d="M9161 2414 c0 -11 3 -14 6 -6 3 7 2 16 -1 19 -3 4 -6 -2 -5 -13z"/>
<path d="M9301 2134 c0 -11 3 -14 6 -6 3 7 2 16 -1 19 -3 4 -6 -2 -5 -13z"/>
<path d="M9291 2094 c0 -11 3 -14 6 -6 3 7 2 16 -1 19 -3 4 -6 -2 -5 -13z"/>
<path d="M9271 1982 c-14 -113 -14 -211 1 -340 l12 -102 -34 -78 c-18 -42 -49
-105 -67 -139 -19 -35 -32 -63 -30 -63 9 0 69 110 103 187 30 70 44 82 44 39
0 -48 115 -454 125 -444 2 2 -14 61 -35 131 -22 70 -51 184 -66 253 l-26 125
21 77 c20 75 42 237 40 297 -1 17 -8 -22 -15 -85 -7 -63 -21 -146 -30 -185
-16 -64 -18 -67 -25 -41 -17 60 -21 243 -10 345 7 57 10 105 8 107 -2 3 -9
-35 -16 -84z"/>
<path d="M9351 1974 c0 -11 3 -14 6 -6 3 7 2 16 -1 19 -3 4 -6 -2 -5 -13z"/>
<path d="M9473 1705 c0 -27 2 -38 4 -22 2 15 2 37 0 50 -2 12 -4 0 -4 -28z"/>
<path d="M10280 1670 c6 -11 13 -20 16 -20 2 0 0 9 -6 20 -6 11 -13 20 -16 20
-2 0 0 -9 6 -20z"/>
<path d="M9436 1010 c3 -14 11 -32 16 -40 6 -10 7 -7 2 10 -3 14 -11 32 -16
40 -6 10 -7 7 -2 -10z"/>
<path d="M9511 834 c0 -11 3 -14 6 -6 3 7 2 16 -1 19 -3 4 -6 -2 -5 -13z"/>
<path d="M9948 626 c-7 -39 -4 -55 8 -44 3 3 4 23 2 44 l-3 39 -7 -39z"/>
</g>
</svg>
