<?xml version="1.0" standalone="no"?>
<!DOCTYPE svg PUBLIC "-//W3C//DTD SVG 20010904//EN"
 "http://www.w3.org/TR/2001/REC-SVG-20010904/DTD/svg10.dtd">
<svg version="1.0" xmlns="http://www.w3.org/2000/svg"
 width="1007.000000pt" height="1280.000000pt" viewBox="0 0 1007.000000 1280.000000"
 preserveAspectRatio="xMidYMid meet">
<metadata>
Created by potrace 1.15, written by Peter Selinger 2001-2017
</metadata>
<g transform="translate(0.000000,1280.000000) scale(0.100000,-0.100000)"
fill="#000000" stroke="none">
<path d="M1270 12790 c-178 -25 -330 -74 -491 -157 -138 -71 -252 -158 -369
-280 -195 -203 -320 -447 -381 -748 -30 -144 -33 -438 -6 -582 59 -313 180
-577 379 -824 271 -337 672 -564 1095 -620 116 -15 379 -6 483 16 512 111 914
469 1079 962 60 180 75 286 75 508 0 149 -4 222 -17 285 -72 353 -203 622
-430 880 -143 162 -318 295 -522 396 -239 117 -424 164 -675 169 -85 2 -184 0
-220 -5z"/>
<path d="M6228 12590 c-286 -82 -468 -266 -562 -569 -44 -140 -59 -265 -53
-436 11 -285 80 -451 260 -622 251 -237 569 -242 878 -14 138 102 252 304 304
541 22 103 31 337 16 440 -24 163 -78 293 -167 407 -101 127 -238 223 -370
257 -84 22 -221 20 -306 -4z"/>
<path d="M4343 12589 c-175 -20 -333 -99 -468 -234 -158 -157 -225 -323 -226
-558 -1 -446 271 -892 606 -994 46 -14 92 -18 200 -17 122 1 151 4 230 28 222
67 394 211 490 411 62 129 79 205 78 355 -1 454 -286 911 -618 993 -79 20
-203 26 -292 16z"/>
<path d="M7945 11855 c-346 -71 -665 -503 -665 -900 0 -116 15 -181 65 -281
83 -169 254 -303 454 -356 98 -26 269 -28 360 -4 195 50 367 194 501 416 97
161 142 316 142 485 1 119 -22 206 -76 298 -93 161 -257 283 -441 332 -85 23
-254 28 -340 10z"/>
<path d="M9394 10646 c-87 -20 -157 -52 -250 -112 -266 -175 -420 -509 -370
-804 50 -298 274 -484 561 -467 273 16 524 200 654 479 62 131 75 193 75 343
-1 113 -4 139 -26 202 -61 173 -166 284 -323 343 -77 28 -232 36 -321 16z"/>
<path d="M5155 10515 c-732 -69 -1364 -291 -1775 -622 -105 -85 -291 -280
-378 -395 -186 -248 -348 -566 -441 -867 -202 -650 -180 -1295 61 -1775 173
-345 442 -580 795 -695 117 -38 205 -56 373 -76 688 -82 1271 -326 1625 -680
114 -113 208 -240 274 -364 129 -248 189 -561 162 -858 -30 -344 -160 -643
-626 -1438 -410 -700 -559 -1004 -635 -1302 -115 -442 4 -847 326 -1112 194
-161 432 -259 746 -308 154 -24 540 -24 718 1 276 37 529 92 685 146 181 64
380 177 557 316 111 86 362 345 466 479 371 478 697 1130 954 1910 287 873
465 1771 550 2785 21 245 17 965 -5 1155 -38 312 -115 728 -189 1015 -306
1190 -892 1833 -2163 2370 -385 163 -750 257 -1186 305 -203 23 -699 28 -894
10z"/>
</g>
</svg>
