<?xml version="1.0" encoding="utf-8"?>
<!-- Generator: Adobe Illustrator 21.1.0, SVG Export Plug-In . SVG Version: 6.00 Build 0)  -->
<svg version="1.0" id="Warstwa_1" xmlns="http://www.w3.org/2000/svg" xmlns:xlink="http://www.w3.org/1999/xlink" x="0px" y="0px"
	 viewBox="0 0 792 792" enable-background="new 0 0 792 792" xml:space="preserve">
<g>
	<path d="M640.8,720.4l-34,7.9c-2.7,0.5-9.2,1.7-11.6,1.9l-9-1.3c-2.3-0.6-0.7-0.3-2.2-0.7c-3.9-1.1-4.3,2.2-9.9,2.2
		c-16.4,0-12.2-3.7-18-5.4c-6.9-2-11.3,3-17.2-9.8c-1.1-2.3-1.5-3.7-2.2-6.4c-3.9-15.3-2.7-35.8,9.9-46.4l7.6-4.5l-19.7-20
		c-3.5-3.5-6.4-6.2-9.7-10.1c-2.6-3-6.3-8.5-10.3-8.9c0,3.8,1.1,6.7,1.7,10.3c1.6,9,6.8,63.9,6.8,72.7c0,4.6-26.1,14.1-31.9,14.2
		c0,10.5-2.6,24.8-10.2,30.9c-3.8,3-9.5,4.6-14.9,5.7c-6,1.3-12.5,1.3-18.4,2.1c-10.6,1.5-36,1-47.2,1c-11.3,0-16.5-3.2-17.7-3.2
		c-2.6-0.1-14.9,4.4-23.2-4.1c-2.5-2.6-2.4-2.2-5.8-4.2c-12-6.7-16.2-18.9-13.3-35c1.9-10.9,7-19.1,14-26.5c0.1-0.1,0.2-0.3,0.3-0.4
		l5.6-4.4c6.4-4.6,14.6-6.7,23.1-6.7l-4-8.1c-2.6-4.6-10.7-19-11.6-23.1c-10.2,0-17.7-0.7-27.7-0.7c0,9.2-2.3,25.3-3.5,34.1
		c-2.2,15.6-5.2,30.7-11.5,45.2c-1.9,4.3-6.6,5.7-11.1,7.3c-9.7,3.5-21.1,5.6-32,5.6c-11.7,0-8-2.4-13.2,0.2
		c-6.5,3.3-16.3,2.3-22.5-1.4c-1.7-1-2.4-2.2-3.7-2.5c-2.4-0.6-12.7,5.5-20.9-7.7c-3.9-6.4-4.3-16.5-4.3-24.8
		c0-16.7,13.3-36.5,28.4-36.9c1.1-12.8-1.9-31.8-4.6-44.4c-1.8-8.6,0.9-7.7-5.9-13.3c-8.1-6.7-14-15.2-20.6-23.3
		c-4-4.8-7-10-9.8-15.7c-5-10-8.2-15.9-10.9-26.7c-2.6-10.6-3.3-23.1-1.7-34.3c1.5-10.6,3.4-20.9,7.4-30.9l8.4-17.9
		c1-2.4,0.2-19.7,0.2-23.9c-9.9-5.3-21.9-11.4-29.4-20.2c-0.7-0.8-0.5-0.7-1.3-1.5c-1.1-1.2-1.8-1.7-2.8-2.9
		c-1.7-1.9-3.4-4.4-4.9-6.4c-1.9-2.6-2.7-4.2-4.3-7c-2.9-5.3-5.2-10.7-6.5-16.9c-1.7-7.8-4.2-8.5-7.6-15.1c-0.7-1.4-1.1-1.9-1.9-3.8
		c-0.9-1.9-1-2.1-1.6-4.1c-1.9-5.9-4-11.1-6.1-17.3c-8.5-25.2-1.2-43.3,19-55.6c3-1.8,9.5-5.1,14.1-5.1l6.1-28
		c0.4-2.3,1.1-7.6,1.7-8.9c-10.9-2.5-18.6-23.9-9-43c1.8-3.6,3.7-5.9,6.4-8.5c1-1,1.6-1.6,2.6-2.4c-3.2-0.8-7.4-2.7-9.9-4.3
		c-9-5.5-15.6-13.1-15.6-25.5c0-5.6,0.9-11.7,3.3-15.9c2.1-3.6,4.8-5.8,8.3-8c9.5-5.8,21.6-6.7,33-6.7c0-9.7,3.6-19.6,10.1-26.1
		c7.7-7.6,13.5-10.8,25.4-10.8c0.7-8.2,5.2-17.5,8.5-23.4c5.7-10,17.2-15.6,28.3-18.5c4.1-1,8.2-2.4,12.2-3.4
		c23.6-5.8,58.7-2.3,80.7,4.1c1.9,0.6,2,0.8,3.6,1.4l10.1,4.1c8.1,4.3,16.5,9,23.7,14.6l10,9.2c1.8,1.8,3,3.6,4.4,5.5
		c3.5,4.6,3.3,7.4,9,10.2c1.3,0.7,2,1.1,3.2,1.7c1,0.5,1.9,1,2.8,1.5c3.9,2.1,8.3,4.8,12,7.2c10.2,6.7,24.9,15.4,33.2,24.3
		c6.2,6.7,11,15.8,13.3,25c6.2,24.5-0.2,33.8-1.1,45.1c12.4,0,25-3,38.3,3.5c3.1,1.5,6.2,3.1,8.4,5.8c10.8,12.9,20.7,33.3,20.7,50.3
		c0,12.8-3.8,25.7-10.1,33.1c-6.8,8.1-17.1,13-27.6,10.3c-13.2-3.4-24-21.3-27.2-33.8c-5.3-20.8-0.3-20.8-0.3-36.6
		c-4.2,1-6.4-2.6-10.1,12.6c-3.9,16.4-2.6,46.8-1.3,63.3c6.8,0,33.8,6.3,38.3,8.5l0.5,1.8c1.3,5.5,3.5,10.8,7.5,15.1
		c3.7,3.9,9.4,8.7,14.6,10.9l35.6,15.5c17.1,8.5,38.7,29.9,37.7,51.1c-0.6,12.3-4.7,9.1,3.9,15.9c5.7,4.5,6.7,3.7,5.4,11.9l-4,15.1
		c-6,17.4-25.6,59.2-46.4,59.2c2.3,3.4,4.9,6,7.5,9.5c10.6,14.7,30.9,60.3,38.3,78l24,59.7c3.7,11.3,9,28.1,9,40
		C653.6,707.1,656,716.3,640.8,720.4z"/>
	<path fill="#C65F25" d="M232,243.5c-0.6,3.4,0.2,3-1.9,4.5c0.5-6.6,3.7-12.9,0.3-24.4c-3.4-11.4-13.8-12.5-19.9-12.5
		c-5.3,0-10.8,3.7-13.6,6.5c-3.6,3.7-6.4,10.9-7.2,11.9c0.5-6.5,4.6-24.6,6.9-30.7c4.5-12.1,20.3-4.5,24.8-12.9
		c1.5-2.8-0.2-6.4-2.8-7.9c-2.7-1.6-8-0.9-11.8-0.9c1.6-3,3.5-3.8,7.4-5.4c3.3-1.3,5.8-2.5,9.2-3.6c3.1-1,6.8-2.2,10-2.8
		c3.6-0.7,7.7-1.2,10.3-2.4c-1.4,5.9-3.1,6.7-5.3,18.8c-1.4,7.8-0.6,15.2-1.1,23.7c-0.1,2.6-0.6,8-1,11
		C235.2,223.3,232,243.5,232,243.5z M307.4,636.1c-5.8-1-22.6-6.5-22.6-6.5c-25.5-8.4-24.3-11.9-39.1-19.8c0.1,3.4,1.2,6.7,1.8,10.3
		c1.3,8.3,1,3.2,6,3.2c17.6,0,31.2,22.2,45.4,30.5c8.1,4.7,18.9,7.6,28.3,4.2c6.4-2.3,5.7-4.8,5.7-4.8s1.3-12.3,1.4-14.3
		C334.4,638.9,322.3,638.7,307.4,636.1z M489.8,198.4c15.6,0,25.6-3,39,4.3c4.6,2.5,7,7.3,7.7,8.4c12,18.2,14.3,23.4,14.3,47.6
		c0,9.4-3.8,16.8-9.3,23.3c-5.3,6.4-13.6,10.3-22.9,5.3c-6.2-3.3-11.8-11.2-15.2-17.4c-8.5-15.8-7.9-40.5-2.2-56.5
		c0.9-2.6,4.4-7.4,1.3-8.6c-3.3-1.3-7.1,14.2-7.1,14.2s-15.6-1.5-15.6,3.5c0,2.2,0.7,1.9,3.5,2.1c-0.3,3.8-4.2,6.9-6.7,16.7
		c-1.9,7.6-2.3,12.3-3.2,20.3c-2,18.2,4.2,18.4-8.3,27.1c-2.7,1.9-4.4,3.1-7.2,4.8c-35.1,21-96.3,22.4-132.4,7.3
		c-10.3-4.3-36-18.3-39.1-27.6c-3.2-9.6-6.9-32.7-7.4-42.2c-0.2-3.2-0.4-9.8-0.6-13c-0.6-12,4.1-38.5,10.5-49.4
		c1.1-1.9,2.2-3.1,2.8-5.7c0,0,35.2,8.5,41.8,10.7c24.3,8.3,72.6,25.8,96.9,34.3c27.3,9.5,18.6,7.1,29.4-7.5c1.6-2.2,2.9-3.9,5-5.6
		c4.7-4,11-5.8,14.9,0c-4.3,0-5.3,0.8-8.9,1.7c-3.8,0.9-5.8,0.6-6.7,4C467.4,202.1,483.4,198.4,489.8,198.4z M320,191.5
		c3.8,0.8,11.4,1.9,15.2,2.6c4.6,0.7,10.4,2.6,13.8,4.7c16.7,10.1,4.6-7.7,0-12c-6.6-6.1-14-9.9-26.6-10.3
		C307.9,176,304.7,188.3,320,191.5z M381.9,255.9c0-14.6-8.5-30.6-22.3-36.6c-12.5-5.5-39.8-6.2-53,15.3
		c-7.8,12.7-9.3,38.4-3.8,41.5c3.3,1.8,13.6,4.8,17.3,5.4c4.5,0.7,20.2,2.5,27,2.8c5.5,0.3,22.9-0.2,26.1-3.7
		C378.4,274.9,381.9,264.4,381.9,255.9z M554.9,636.7c8.3-4.7,21.5-0.6,28.9,2.5l15.2,8.2c13.7,8.9,23.9,8.6,39,8.6
		c-0.5-2.3-1.3-3.2-2.1-5.7c-6.4-19.3-41.5-95.3-52.7-115.4l-5.4-9.4c-1-1.4-1.9-2.8-2.8-4.3c-6.2-10.5-10.2-10.4-17.8-18.4
		c0,12.2,0.5,24.9-1,35.9c-1.7,12.2-2.3,17.4-6.4,29.7c-3.6,10.8-2.9,8.1-6.9,16.5l-4.4,8.4c-8.9,14.6-13.2,15.9-16,20.2l6.2,7.3
		c2.4,2.5,4.5,4.2,6.6,6.9l12.8,14.2C550.6,639.9,550.1,639.4,554.9,636.7z M513.2,665.1c0-7.5-1.2-14.4-1.4-21.3
		c-0.2-7-2.1-17.9-2.1-20.6c-4,0.9-14.5,7.7-21.3,7.8c0,9.8,2.1,17.6,2.1,31.2c2.5,0.7,4.1,2.4,6.4,3.6
		C504.4,669.8,507.8,668,513.2,665.1z M190.4,273.6c0.8-3.3,0.7-8.5,0.7-8.5s-4.6-1.1-5.9-1.7c0,0,1.7-10.6,1.7-16h-0.7
		c0,4.3-3.7,14.5-5.2,18.2C178.1,272.8,174.8,273.6,190.4,273.6z M377.7,646.7c0,0,3.8-5.3,13.8-5.9c19.2-1.1,32,17.7,48.5,28
		c13.4,8.4,29.4,14,44.1,4.1c0-5.4-5.6-56.2-6.5-60.2c-4.8-23.9-5.9-34.7-13.2-59.9c-2.5-8.7-10.6-34.8-10.6-34.8
		c-0.6-1.8-4.2-9.7,0-7.9c1.8,0.7,4.6,8.1,4.7,8.2c0-17.8-3.5-49.6-33.6-60c-12.8-4.4-29.3-1.9-39.5,2.5c-13.7,6-25,14.1-32.7,25.5
		c-33.3,49.3-34.3,70.9-25.2,93.5c3.9,9.7,12.8,20.6,20.4,25.7c-0.6-2.7-4-8.1-5.7-11.4c-3.9-7.5-7.5-12.5-2.8-12.5
		c3.4,0,18,28.5,20.6,33C363.4,620.7,377.7,646.7,377.7,646.7z M187,206.4c1.5-5.4,6.9-21.4,6.9-21.4c-1.6-0.6-4.6-1.3-6.4-1.4
		c-4.7,8.9-12.7,15.1-12.7,28.7c0,7.3,3.4,13.8,7.8,18.9C182.7,226.1,184.6,214.9,187,206.4z M219.9,485c0.1,0.4,0.2,0.9,0.3,1.3
		c0.2,0.9,0.4,1.9,0.6,2.9l0.1,0.4c0.3,1.1,0.7,2.6,1,3.4l0.7,2c1.4,3.7,3.4,7.3,5.5,10.1c1.4,1.8,2.6,3.1,4.5,4.9
		c0.1,0.1,0.2,0.2,0.4,0.3c0.1-1,0.3-1.9,0.4-2.9l0.2-1.4c0.2-1,0.3-2,0.4-3c0.1-1.2,0.4-2.5,0.6-3.8c0.1-0.9,0.3-1.9,0.4-2.8
		c0-0.2,0.1-0.5,0.1-0.8c0.1-0.4,0.1-0.8,0.2-1.2c-1.3-0.8-3.2-2.8-3.8-3.8c-0.1-0.1-0.3-0.5-0.4-0.6c-0.7-1.1-1.1-2.1-1.5-3.3
		c-0.1-0.4-0.2-0.7-0.3-1.1l-0.1-0.4c-0.2-0.8-0.1-2.9,0.1-3.7c0.1-0.2,0.1-0.4,0.2-0.5c0.1-0.3,0.1-0.5,0.3-1
		c0.8-2,2.1-3.9,4.2-5.9c0.5-0.5,1.2-1.1,2.1-1.8c1.2-1,2.5-1.9,3.9-2.7c0.5-0.3,1-0.6,1.6-0.6c0.4,0,0.7,0.1,1,0.4
		c1.1,0.8,0.8,2,0.6,2.9c-0.1,0.2-0.1,0.4-0.1,0.6c-0.1,0.6-0.2,1.2-0.4,1.8c-0.1,0.6-0.3,1.1-0.3,1.7c0,0.2-0.1,0.3-0.1,0.5
		c0,0.1-0.1,0.2-0.1,0.4c-0.5,2.8-0.1,5.1,1.1,6.4c0.2,0.2,0.7,0.6,0.8,0.6c0,0,0.5-0.4,0.7-0.7c0.5-0.6,1-1.7,1.3-2.5l0.7-2.4
		l0.4-2.6l0.1-0.7c0.1-1,0.2-1.9,0.3-3c0.1-0.9,0.4-1.3,1-1.6c0.3-0.2,0.7-0.3,1-0.3c0.9,0,1.5,0.8,2,1.4l0.4,0.5
		c1.2,1.5,3,3.7,3.7,5l0.2,0.4c0.6,1.2,1,2,1.5,3.5c1.2,3.6,0.9,7-0.8,9.7c-1.1,1.8-2.3,2.8-4,4c-0.4,0.3-1.5,1-2.2,1.3
		c-0.1,0.3-0.1,0.7-0.1,1.1c0,0.3,0,0.5,0,0.8l0,0.2c-0.1,0.7-0.1,1.3-0.2,2c-0.1,1-0.2,2-0.3,3c-0.1,1.2-0.2,2.4-0.3,3.6
		c0,0.3,0,0.6-0.1,0.8c0,0.5-0.1,0.9-0.1,1.3c0,0.5-0.1,1-0.1,1.6c0,0.2-0.1,0.4-0.1,0.6c0.2-0.2,1.6-1.1,1.6-1.1
		c0.1-0.1,0.2-0.1,0.3-0.2l0.6-0.4c0.2-0.2,0.4-0.3,0.6-0.5l0.1-0.1c0.6-0.5,1.2-1,1.8-1.6c2.8-2.7,4.3-4.5,6.7-7.9
		c1-1.5,2.5-3.7,3.5-6c0.1-0.2,0.2-0.5,0.4-0.7c0.1-0.2,0.2-0.5,0.3-0.7c0.5-1.1,2.3-5,3-7.7c0-0.2,0.1-0.4,0.2-0.6
		c0.1-0.2,0.1-0.5,0.2-0.7c0,0,0,0,0,0c-0.1,0-0.2,0-0.3-0.1c-1.4-0.4-2.8-1.1-4-1.9c-0.1,0-0.1-0.1-0.2-0.2
		c-0.1-0.1-0.2-0.2-0.3-0.2l-0.1,0l-0.4-0.4c-3.6-3.2-4.8-9.1-4.4-13.6l0-0.3c0,0-0.1,0-0.1,0c-0.2,0-0.5-0.1-0.9-0.2
		c-3.1-0.9-8.2-1.5-11.6-1.8c-0.4,0-0.8-0.1-1.2-0.1c-0.6,0-1.2-0.1-1.8-0.1l-1.4-0.1c-0.3,0-0.5,0-0.8,0c-0.2,0-0.4,0-0.6,0
		c-0.5,0-1,0-1.4,0c-0.5,0-0.9,0-1.4,0l-2.9-0.1c-0.1,0-0.3,0-0.5,0c-0.5,0-1,0-1.5-0.1c-0.1,0-0.3,0-0.4,0c0,0.2-0.1,0.5-0.1,0.7
		c0,0.2,0,0.4-0.1,0.6c-0.2,1.4-0.7,3.2-1.3,4.5c-1.4,2.9-3.1,5-5.9,6.9c-1.2,0.8-3.2,1.9-4.6,2.4c-0.3,0.1-0.5,0.2-0.7,0.2
		c-0.1,0-0.2,0-0.3,0.1c0,0.1,0.1,0.7,0.1,0.8C219.3,480.5,219.7,483.8,219.9,485z"/>
	<path fill="#8C4400" d="M486.2,621.1l-5.7-32.6c-1.2-6.1-2.2-10.3-2.2-10.3s14.3-19.6,20.4-41.4c5.5-19.3,13-57.1,3.8-80.3
		c0,0,22.1,18.3,29.6,24.3c2.7,2.2,4.8,3,5.6,5.8c1.8,5.8,2.6,12.8,2.6,20.2c0,14.8-2.7,42.3-17,69.1
		C507.1,606.2,486.2,621.1,486.2,621.1z M614.8,423.5c1.4,0.8,4.1,2.5,4.8,4.2c4.7,13-27.1,75.5-46.7,75.5
		c-10.1,0-94.1-76.9-94.6-77c6-28.6,21.2-55.8,40-69.8C520.6,354.5,612.8,422.4,614.8,423.5z M499,387.8
		c1.6,6.1,23.8,16.5,18.4,22.7c-6.6,7.7-27.7-10.6-27.7-10.6s-0.3,3.4,0.6,9.3c2.7,16.4,9.3,33.2,34.9,21.2l19.1,14.2
		c9,6.5,37.6,28.4,46.1,28.4c6.1,0,8.2-1.7,11.4-7.8c2.5-4.8,2.9-8.6-0.9-12.7c-3.1-3.3-46.1-31.4-52.8-35.9
		c-4-2.7-6.7-4.6-10.9-6.8C537.7,374.8,501.7,386.5,499,387.8z M342.3,233.5c-14,0-25.3,11.3-25.3,25.3c0,8,3.8,15.2,9.6,19.8
		c0,0,2.3,0.5,6.4,0.8c2.9,0.2,7,0.5,7,0.5c-10.1-1.8-17.8-11-17.8-21.6c0-11.9,9.7-21.6,21.6-21.6c11.9,0,21.6,9.7,21.6,21.6
		c0,11.6-9.2,21.3-20.6,21.8c0,0,4.2,0.4,6.8,0.4c3.2,0,4.3-0.4,4.3-0.4c7-4.5,11.7-12.3,11.7-21.3
		C367.6,244.8,356.3,233.5,342.3,233.5z M226.4,224.1c-0.3-0.5-1.3-2.7-2.4-3.5c-12.1,1.9-20.8,12.2-20.8,24.8
		c0,1.3,0.1,2.5,0.3,3.7c0,0,0,0,0,0c0.9-0.5,4.2-1.4,5.1-1.5c-0.1-0.9-0.2-1.8-0.2-2.7C208.4,234,216,225.6,226.4,224.1z"/>
	<path fill="#666666" d="M247.9,450.9c-1.8-7.5,0-14.2,0-14.2s24.3,1.7,59.2-10.3c5-1.7,5.1-2.7,10.9-1.6c5,1,25,3.4,25,3.4
		s-0.3,0.1-0.4,0.3c-2.7,2.8-16.6,9.6-33.8,14.5C286.7,449.3,260.6,451.1,247.9,450.9z M212.4,430.3c0.8,1.7,1.2,5,1.6,7.6
		c0.4,2.4,0,5.2,1.8,6.7c1.7,1.5,10.5,4.6,12.9,4.8c-2.3-4.7-1.3-9.9-0.7-14.9L212.4,430.3z M483,397.2
		c15.3-35.3,32.3-42.7,32.3-42.7s-8.4-5.3-20.4,5.2c-8.3,7.3-19.9,29.5-24.3,39.7c-6.8,15.7-4.2,18.9-4.2,18.9l8,4.7
		C474.3,422.9,478.9,406.5,483,397.2z M510.3,311.9l-28.4-5.7v7.1l14.2,2.8L510.3,311.9z M481.2,341.7c1.6-1.9,11.3-22.7,11.3-22.7
		l-10.6-2.1L481.2,341.7z M255.4,100.1c0-0.1-0.1-0.2-0.1-0.3c-1.4-4.7-1.8-9.5-1.4-14.5c0.2-2.8,0.8-5.5,1.3-8.4
		c0.1-0.5,0.3-1,0.5-1.5c0.2-0.3,0.4-0.5,0.7-0.5c1-0.2,2-0.5,3-1c2.1-1,3.5-2.9,4.2-4.9c0-0.1,0.1-0.4,0.2-0.5
		c0.2-0.6,0.5-0.9,1.1-1.1c2.1-0.7,4.2-1.1,6.3-1.3c4.3-0.4,8.5-0.1,12.6,0.8c3.5,0.7,6.9,1.9,10,3.7c0.3,0.2,0.5,0.3,0.4,0.8
		c0,0.5,0,1,0.1,1.4c0.1,2,0.9,3.7,2.2,5c0.8,0.8,1.6,1.5,2.5,2.2c0.3,0.2,0.3,0.3,0.3,0.7c-0.1,1.3-0.2,2.7-0.5,4
		c-1.1,5.5-3.2,10.5-6,15.1c-3.3,5.1-7.4,9.5-12.5,12.8c-3.6,2.2-7.4,3.7-11.7,4.4c-0.3,0-0.5,0-0.7-0.2
		C261.7,112.3,257.6,106.7,255.4,100.1z M284.7,90.8L284.7,90.8c0.3,0,0.5,0.1,0.8,0c1.4-0.1,5.3-1.3,6.2-6.1c0.3-1.6,0-2.7-1-3.4
		c-0.7-0.5-1.4-0.8-2.2-0.9c-1.4-0.2-2.7,0.3-3.9,1.4c-1.2,1.1-1.9,2.5-2.3,4.1c0,0.1,0,0.1,0,0.2c0,0.1-0.1,0.3-0.1,0.4
		C281.9,88.8,282.9,90.5,284.7,90.8z M271,82.2c0.6,1.3,1.7,2.3,3.2,3.1c0.3,0.2,0.7,0.3,1.1,0.4l0,0c0.9,0.1,1.8-0.2,2.6-0.9
		c0.3-0.2,0.6-0.5,0.8-0.8c0.8-1.1,1.4-2.3,1.7-3.8c0.1-0.4,0.1-0.8,0.2-1.2c0.2-2.5-0.8-4.3-2.9-5.2c-0.4-0.2-0.9-0.3-1.3-0.4
		c-1-0.1-2,0.1-2.7,0.7c-0.7,0.5-1.3,1.2-1.9,2.1C270.4,78.2,270.1,80.2,271,82.2z M266.1,99.3c-0.2,0.8-0.2,2.1,0.3,3.3
		c0.5,1.1,1.5,2.4,4,2.9l0,0c0.3,0.1,0.8,0.1,1.4,0c2.2-0.6,4-0.7,5.7-0.5l0.1,0c0.9,0.1,1.7,0.3,2.6,0.3c0.8,0,1.5,0,2.2-0.4
		c1.9-1.1,2.8-3.3,2.3-5.3c-0.3-1.1-0.6-2.1-0.9-3c-0.7-1.8-1.4-3.2-2.4-4.3c-0.9-1.1-2.1-1.7-3.5-1.9c-0.5-0.1-1-0.1-1.5-0.1
		c-1.7,0.1-3.2,0.7-4.9,1.9C268.7,94.1,266.9,96.5,266.1,99.3z M258.7,86.6c0.6,1.5,1.7,2.6,3.4,3.5c0.6,0.3,1.3,0.5,2,0.7h0
		c0.5,0.1,1.1,0.1,1.7,0c1.4-0.1,2.1-0.8,2.4-2.3c0.4-2.3-0.3-4.4-2-6.1c-0.6-0.6-1.4-1-2.2-1.2c-0.1,0-0.1,0-0.2,0
		c-1.3-0.2-2.5,0.3-3.8,1.3C258.5,83.7,258.1,85,258.7,86.6z"/>
	<path fill="#ECD5C5" d="M646.3,711c-1.4,2.4-2.9,2.3-5.9,3.3c-5.4,1.7-9,2.8-14.9,4.3c-7.4,1.9-25.2,6.8-32.2,6.8
		c-19.3,0-17-20.2-17-31.2c0-17.3,9.6-17.4,10.6-21.3c-16.1,1.3-16.3,34.5-12.3,45c1.2,3.1,2.4,3.5,3.1,6.1c-5,0-15.3,3.6-20.5-8.6
		c-3.6-8.5-7.6-34.1,2.7-41.1c4.2-2.9,3.4-1,4.3-3.5c-2.9-1.3-6.8,1.8-8.8,4c-7.1,7.7-6.1,16.3-6.1,27.2c0,7.9,1.5,14,4.3,19.2
		c-5.5,0-6.4-1.1-8.8-4.6c-1.9-2.8-2.9-6-3.5-9.9c-1.1-6.1-1.4-19.1,0.2-24.6c9.8-33.4,50.2-17.6,57.6-21.2
		c-0.3-2.4,1.1-2.1-7.5-4.5c-2.8-0.8-7.5-1.6-10.2-1.8c-4.9-0.4-6.6-0.8-10.8-0.3c-2.2,0.3-3.8,0.1-5.9,0.5c-2.1,0.4-3.1,1-5.2,1.1
		c-0.3-3.9-6.1-7.7-8.5-11.3c5-5.7,7.5-6.4,15.6-6.4c5.8,0,13.9,2.8,18.8,5.3c7.1,3.6,14.9,8.9,19,10.8c10.7,4.7,23.4,7.2,35.2,4.5
		C639.6,661.2,652.6,699.8,646.3,711z M305.6,660.6c-12.6-4.8-17.9-10.5-26.7-19.4c-4.2-4.3-12.4-10.5-18.2-13
		c-5.3-2.2-7-2.2-11.4,0.7c0,6.3,1,9.2,1.4,14.2c0.5,5.8-0.7,10.3-0.7,14.9c6.8-1.6,41.8,3.8,38.3,9.2c-1,1.6-7.3-1.4-14.2-2.8
		c-5.9-1.2-9-1.4-16.3-1.5c-19.2-0.1-26.2,7.7-31.5,21.7c-1.8,4.8-2.5,9.8-2.8,16.1c-1.1,23.2,14.5,21.8,14.5,21.8
		s-4.7-7.4-5.1-14.9c-0.4-6-0.1-11.2,1.2-17.4c3.6-18,19.3-23.1,20-19.8c0.6,3-10.7,3.2-14.6,15.2c-2,5.9-3.7,15.8-2.3,22.2
		c4.8,22.8,19.3,19.7,30.7,19.7c0,0-9.2-11.6-5.4-33.1c1.7-9.8,6.4-19.8,18.2-20.8c0.5,0,2,0.1,2,0.6c0,0.5-2,0.8-2,0.8
		c-21.2,1.8-18.2,44.7-6.2,51.6c6,3.4,33.2-3.2,40.8-7.7c6-3.6,5.4-5.7,8.6-16.3c2.5-8.5,7.9-35.3,7.9-42.5
		C320.9,663.1,317.5,665.1,305.6,660.6z M181.2,300.5c0-4.4,0-9,2.5-13.1c2.2-3.5,4.4-4.7,4.6-10.3c-10.9,0-9.9-2.9-15-0.9
		c-5.7,2.3-17.2,9.9-20.9,14.6c-14.1,18-7.8,34.5-1.2,54.5c0.9,2.7,5.1,12.6,5.1,12.6c0-6.5,2.1-31.3,4.3-37.9
		C163.6,311.2,172.6,302.6,181.2,300.5z M314.8,417.8c4.2-1.4,12.8-7.7,15.4-5.2c2.9,2.9-10.6,8.5-10.6,8.5l22.5,2.3
		c18.4,2.4,24.2,0.4,37.8,0.5c12.1,0.1,28.8-3.3,38.7-7.4c20.2-8.2,36.8-17.9,45.7-39.4c11.5-28,8.5-89.4,8.5-89.4
		s-12.9,14.5-47.5,22.7c-32.4,7.7-51.4,5-70.7,1.8c-17.6-2.9-28.3-5.6-43.7-14.5c-4.5-2.6-13.2-8.1-17.4-11.2
		c-11.6-8.5-10.4-11.8-12.4-19c-5.7-20.5-7.6-34.5-6.4-55.9c0.6-10.6,3.4-31.4,9.6-41.5c1.2-1.9,6.9-8.8-3.5-8.2
		c-5.5,0.3-28-0.9-31.7,0.6c-2.6,1.1-4,6.8-5,9.9c-2.4,8.2-3.3,15.5-3.3,25.8c0,12.7-6.4,51.8-6.4,51.8s9.6,9.2,7.9,16.3
		c-2,8.2-4.7,10.2-11.5,14.3c-8,4.9-14,5.6-23.1,7.2c-3.4,0.6-2.9,0-3.9,2.5c-2,5.4-1.7,15.5,0.6,21.6c2.4,6.3,4.1,6.1,5.6,6.4
		c20,3.9,32.7,1.7,43.9-1.3c2.9-0.8,11.7-3.2,11.7-3.2c-0.3-25,20.7-30.7,25.5-9.9c1.9-1,4.9-3.3,6.4-2.1c3.4,2.7-9.9,8.5-12.8,9.9
		c-24.7,12.3-57.2,21-84.6,9.4c-6.8-2.9-11.7-12-13.2-18.7c-25.5,5.9-24.8,43.4-21.6,63.4c1.8,11.4,7.6,26.1,15.4,33.2
		c18.8,16.8,31.7,22.2,45,25.5C250.9,431,267.4,434,314.8,417.8z M201.8,314.7c-1.3-5.7-2.8-6-2.8-13.5c0-5.5,1.1-9.1,2.1-13.5
		c-2.4-3.6-7.1-10.6-7.1-10.6s-4,8.9-3.2,19.6C191.4,304.8,197.1,311.6,201.8,314.7z M506.1,671.5c-10,0-9.3-2.9-14.9-4.3
		c0,7.6,0.7,13.2,0.7,21.3c0,7.1,0,14.2,0,21.3c8.1-0.7,17.5-7.5,23.4-10.6c0-5.6-2-29.5-2-29.5S510.7,671.5,506.1,671.5z
		 M484.4,677.2c-4.5,0.4-18.2,12.3-44.4-4.2c-14.7-9.2-20.4-18-32.8-24.6c-3.4-1.8-9.5-4.8-14.5-4.5c-5.6,0.3-10.4,2.3-12.2,6.3
		c-1,2.3,7,12.4,7.8,22c6,0,13,2.7,17.5,5.9c1.5,1,4.5,3.2,3.8,4c-4.5,5.4-31.6-22.4-52,7.6c-10.3,15.2-16.8,40.1-5.5,47.7
		c-3.4-7.5-6.1-34,10.4-44c-6,5-15.8,25.7-7.3,44.5c1.4,2.6,2.7,4.6,4.4,6.9c2.3,3.1,2.5,2.8,6.3,4.3c4,1.6,12.7,4.8,16,0.3
		c-2.7-0.7-12.8-11.8-11.3-27.6c0.4-4.6,3-11.2,5.5-14.8c2-2.9,7.7-12.1,10-9.3c0.4,0.5-6.1,7.1-7.4,8.9
		c-12.9,18.7-2.1,39.4,8.9,43.5c4.9,1.8,24.5,1.8,30.3,1.4c5.4-0.4,32.5-1.6,42.2-3.2c16.3-2.7,20.9-6.7,24.2-26.8
		c0.6-3.6,1.1-5.9,1.1-14.5C485.5,704.8,483,680,484.4,677.2z"/>
	<path fill="#FFFFFF" d="M348.4,259.1c-3.4,0-6.1-2.7-6.1-6.1c0-3.4,2.7-6.1,6.1-6.1c3.4,0,6.1,2.7,6.1,6.1
		C354.5,256.3,351.7,259.1,348.4,259.1z M231.6,263.7c-0.5-2.9-6.5-3.5-10.6-3.5c1.9,2.9,3.3,5.3,4.3,9.2
		C227.9,268.6,232.1,266.5,231.6,263.7z M283.7,297.4c-8.4-9.2-13.8,8.7-13.8,15.2l18.4-7.1C286.5,302.2,286.2,300.1,283.7,297.4z
		 M226.6,245.9c0.6-2.6,0.9-5.4,0.9-7.9c0-0.8-0.2-1.4-0.2-1.4s-0.1,0-0.2,0c-2.8,0.3-4.7,2-4.8,4.2
		C222.3,243.9,224.4,245.3,226.6,245.9z M335,224c-8.1,1.2-17.6,6.7-22.3,13c-7.9,10.5-8.1,23.4-8.1,35.9l15.6,4.3
		c-14.9-23.3-1.3-38,7.5-42.9c16.1-9,35.2-2.1,41.5,13.1c7.6,18.5-2.4,28.5-5.7,31.9h6.4c3.9-6.9,8.3-25,1.5-37.6
		C364.1,228.1,349.5,222,335,224z M220.2,218.3c0,0-4.4-1.4-7.8-1.4c-10.6,0-16.1,9.2-17.8,16.2c-0.9,3.4-2.2,10.2-2.7,13.6
		c-1.5,11-5.2,14.4,0.7,14.9c0.1-3.4,1.4-5.4,2.7-6.5c1.2-1,4.3-2.6,4.4-4.7C200.2,220.6,220.2,218.3,220.2,218.3z"/>
	<path fill="#FFD500" d="M334.1,57.7c5.3-5.2,12.2-11.6,20.6-10.1c11.4,2,43.5,13.1,59.9,33.8c-31.8-14.8-52.2-12.8-60.3-10.7
		c-5.4,1.5-23.8,6.9-39.1,47.4c-3.2,8.4-9.8,27.8-9.8,27.8l-6.6-1.4c0,0,4.3-19.2,5.9-25.6C308.4,104.1,318.7,72.8,334.1,57.7z
		 M295.4,143.1c-3.7-1.8-52.4-15.7-58.9-16.2c0-3.4,0.6-14.3,0.9-17.7c1.3-12.7,6.9-35.5,13.2-45.7c7.1-11.5,51.3-29.8,93.8-18.3
		c0,0-26.9,3.7-42.8,69.8C299.8,122.4,295.4,143.1,295.4,143.1z M297.8,104.8l0.1-0.2c3.4-5.6,5.8-11.6,7-17.8l0-0.1
		c0.3-1.7,0.4-3.2,0.6-5c0.2-3.1-0.9-5.8-3.3-7.6c-0.5-0.4-1.1-0.8-1.6-1.3l0-0.2c0-0.1,0-0.2,0-0.4c0.2-3.2-1.4-6.3-4.1-7.8
		c-3.5-2.1-7.5-3.5-12-4.5c-3.6-0.7-7.3-1.1-10.9-1c-1.2,0-2.3,0.1-3.5,0.2c-2.9,0.2-5.4,0.7-7.6,1.5c-2.8,1-4,3.1-4.5,4.8
		c0,0-0.1,0.3-0.1,0.3c-0.2,0.5-0.7,1.2-1.5,1.6c-0.6,0.3-1.2,0.5-1.8,0.6c-1.8,0.3-3.3,1.4-4.2,3.1c-0.5,1-0.9,2.1-1.1,3.2
		l-0.2,0.9c-0.5,2.6-1,5.4-1.2,8.2c-0.5,6.7,0.1,12.8,1.9,18.5c2.9,9,8.3,16.3,16,21.6c1.2,0.8,2.4,1.2,3.7,1.1l0,0
		c0.1,0,0.3,0,0.5-0.1c4.6-0.7,9-2.4,13.2-5l0.1-0.1C289,115.8,293.8,110.9,297.8,104.8z M552.1,498.3c0,0-7.4-6.8-9.8-8.4
		c5.2,46.5-5.8,70.4-17.2,91.4c-1.5,2.7-11.2,17.8-17.7,25.2c-8.5,9.5-20,18-20,18l0.6,4.6c0,0,16.4-5.7,27.3-15.3
		c26.4-23.2,32.2-47.4,34.7-65.8C553.8,520.2,552.1,498.3,552.1,498.3z M501.5,505.9c2.2-16,2.2-38.4-4.5-53
		c-1.2-2.5-1.7-2.6-3.7-4.1c-1.7-1.3-44.7-38.3-44.7-38.3c-5.3,4.5-31.6,16.4-58.9,19.9c-10.2,1.3-41.1,0-41.1,0
		s-16.2,11.7-36.1,17.4c-18,5.2-35.9,8.5-42.7,8.9c-1.4,7.7,1.3,15.1,7.7,18.8c0.5,0.3,1.8,1.1,3.7,1.5c1.5,0.4,0.6,2.5,0.4,3.7
		c-1.2,6-8.1,25.8-22.9,37.2c-9.6,7.4-20.5,6.9-22.4,6.9c-1.5,0-0.6,5.9-0.3,7.6c2.6,12.8,3.9,29.3,17.5,45.5
		c44.1,52.7,83.4,56.7,110.7,56.7c-3.8-7.1-2.5-6.7-6.7-7.5c-14.8-2.6-27.7-8.2-38.5-19c-18.3-18.3-21.6-39.7-21.1-64
		c0.5-21.6,7.9-52.8,48-84.8c23.2-18.6,47.6-24.9,67.1-24.9c16.9,0,38.7,17.3,47.1,29c13.7,19,14.7,35.4,11.5,57.6
		c-2.6,17.7-4.4,20.1-4.4,20.1s8.1,26.6,9.2,33.3c0,0,11.5-20.6,16.5-31.9C497.7,531.3,499.8,518.1,501.5,505.9z M206.7,472.3
		c0.3-0.1,18.8-5.8,18.3-17.8c-3.1,0.1-7.1-1.9-9.1-2.8c0,0-3.9,8-6.5,13.4C208.3,467.4,207.6,469.9,206.7,472.3z M518,313.6
		c0,0-14.2,4-18.9,5.5c-2.7,0.8-1.5,0.1-2.8,2.2c-2.9,4.9-16.9,33.5-16.9,33.5s-1.4,10.6-3.9,16.6c-9.7,23.2-22.5,36.1-22.5,36.1
		l10,7.8c0,0-0.7-9.5,4-18.4c6.2-11.9,16.3-32.2,24.4-40.2c6.2-6.1,20.8-10.6,30.2-5.7c21.1,11,90.2,62.3,90.2,62.3s1.4-6.5,1-10.1
		c-1.6-12.9-12.4-29.5-22.9-38c-13.4-10.9-44.1-22.4-47.8-23.9C532.5,337.2,518,324.9,518,313.6z M235.8,88.5
		C213.9,91.3,206,115,206,121.8c8.3,0,26.2,3.5,26.2,3.5S231.9,108.4,235.8,88.5z M308.9,628.9c-56.6-33-68.8-54.2-75.9-82.8
		c-3.8-15.4-1.1-13.4-2.9-21.5c-0.7-3.3-9.1-5-19.4-25.8c-2.7-5.5-5-24-5-24c-5.7,16.4-9.4,32.3-6.6,51.5
		c2.7,18.8,10.8,35.9,22.8,50.1C252.7,613,289.6,627.2,308.9,628.9z M465,535.2c7.4-42,3.2-53.6-4.6-65.2
		c-21.6-31.8-58.6-35.7-87.5-21.4c-6.4,3.2-25.2,10.5-43.6,31.9c-19.2,22.3-25.3,38.2-27.5,70.4c-0.6,7.9,3.9,29.4,6.9,36.3
		c8.2,19.4,30.9,35.1,49.9,36.7c-1.5-2.9-5.4-8.1-5.4-8.1s-19.3-4.9-32.9-32.4c-5.3-10.8-5-15.1-5-27c0-13.4,10-38.3,15.3-48.5
		c28.7-54.8,76.9-67.1,102.5-53.7c12,6.3,21,16.1,26.4,28.9c10.1,23.5,2.8,45.4,2.8,45.4S464.9,535.1,465,535.2z M196.1,181.4
		c3.3-14.1,20.4-18.9,32.8-21.8c11.5-2.7,42.5-3.7,47.3-3.7c0,0-43.6-12.3-73.6-14.2c-23.6-1.5-39.2,5.7-39.2,5.7s-0.3,9.3,2.2,14.8
		C169,169.1,181.4,177.1,196.1,181.4z M245.1,143c14.1,2.9,75.2,19.7,126.5,36.7c43.3,14.3,77.6,28.7,77.6,28.7s15-35,31.5-18
		c8.1,8.3,6.6,0.9,7.7-13.2c1.3-16.6-4.4-37.8-17-49.2c-5.3-4.9-16.7-13.9-22.5-18.2c-37.9-27.3-66.2-33.3-85.5-33.7
		c-4.8-0.1-20.1,1.3-33.3,22.7c-6.7,10.8-21.2,48.4-21.2,48.4s52.1,16.8,58.2,18.9c3.2,1.1,7.7,2.2,6.3,5.2c-1,2.1-9.5-1.2-13.3-2.3
		c-29.1-8.5-82.6-25.3-116.8-32.9c-14.4-3.2-38.1-9.5-58.6-6.6c-7.3,1-18.1,5.1-19.9,12.7C187.9,130.3,224.2,138.8,245.1,143z"/>
	<path fill="#CCCCCC" d="M244.3,436.7c-0.1,3.9-2.3,10.3-0.4,14.2l-11.2-0.8c-3.3-6.1-1-14.8-1-14.8S240.1,436.7,244.3,436.7z
		 M212.9,477.6c0-0.4-0.1-2.1-0.1-2.5c0.2-0.1,6.3-1,10.6-6.8c5.6-7.6,5.9-12.6,6-12.7c5,1.1,26.9,2.1,35.5,1.1
		c0,0.6-0.5,11.8,0,13.1c1.4,4.1,4,7.4,8,9.2l1.6,0.6c0.2,0.1,0.6,0.2,0.9,0.3c0.2,0,0.7,0.1,0.9,0.3c-0.1,0.6-0.3,1.4-0.4,2
		c-0.1,0.7-0.3,1.4-0.4,2c-0.1,0.6-0.4,1.3-0.5,1.9c-0.2,0.6-0.4,1.2-0.6,1.8c-0.4,1.3-0.8,2.2-1.3,3.5l-1.1,2.5
		c-0.1,0.1-0.1,0.3-0.2,0.4c0,0.1-0.1,0.1-0.1,0.2l-0.1,0.2c0,0.4-1.6,3.3-1.9,3.8c-0.7,1.2-1.4,2.3-2.1,3.5
		c-1.4,2.2-3.1,4.3-4.9,6.2c-0.7,0.8-1.3,1.3-2,2.1c-1.9,1.9-4.4,4-6.7,5.5c-2.2,1.5-4.5,2.8-6.8,3.8c-0.8,0.3-4,1.7-4.6,1.9
		c-0.4,0.1-2.9-0.8-3.3-1c-1.4-0.5-2.7-1.2-3.9-1.9c-3.3-1.9-6.7-4.6-9.3-7.3c-0.2-0.3-0.5-0.5-0.7-0.7c-0.9-1-1.7-1.9-2.5-3
		c-1.7-2.2-3.7-5.4-4.8-7.9c-0.8-1.6-1.8-4.2-2.3-6c-0.4-1.4-0.9-2.8-1.1-4.3c-0.3-1.6-0.6-2.8-0.9-4.5c-0.2-1.6-0.6-4.3-0.6-6
		L212.9,477.6z M216.9,479.1c0,0.3,0.1,0.7,0.1,1.2c0.1,1.3,0.3,2.7,0.5,3.8c0.9,5.5,2.1,9.9,3.9,13.9c0.5,1.1,1,2.1,1.5,3.1
		c0.3,0.5,0.5,0.9,0.8,1.5l2.3,3.5c0.2,0.2,0.3,0.3,0.4,0.5l0.1,0.1c1.3,1.7,2.7,3.2,4.3,4.7c3.3,3,6.2,4.7,9.7,5.8
		c0.4,0.1,0.7,0.2,1,0.2c0.4,0,0.7-0.1,1.1-0.3c2.6-1.1,5.6-2.5,8-4.3c0.1-0.1,0.3-0.2,0.5-0.3c0.3-0.2,0.5-0.4,0.7-0.5
		c1.8-1.4,2.8-2.2,4.6-3.9c0.3-0.3,0.7-0.7,1.1-1.1c1.4-1.5,2.8-3.2,3.9-4.7c1.2-1.7,2.1-2.9,2.6-3.9l0.3-0.5c0.6-1,1.1-1.9,1.7-3.1
		c0-0.1,0.3-0.6,0.3-0.6l0-0.1l0-0.1c0.1-0.3,0.3-0.6,0.4-0.9c0.1-0.3,0.3-0.5,0.4-0.8c0.2-0.6,0.5-1.2,0.8-1.6
		c0.2-0.4,0.3-0.8,0.5-1.2c0.1-0.2,0.2-0.4,0.2-0.6c0.8-1.9,1.3-3.4,1.9-5.7c0-0.1,0.1-0.2,0.1-0.3c0.2-0.6,0.5-1.5-0.3-2
		c-0.2-0.1-0.5-0.2-0.8-0.2c-0.1,0-0.2,0-0.3-0.1c-0.9-0.2-1.8-0.6-2.6-1c-0.5-0.2-0.8-0.5-1.2-0.8l-0.2-0.1
		c-2.3-1.7-3.8-4.6-4.3-8.7c0-0.3-0.1-0.7-0.1-1l0-0.5c0-0.5,0-1,0-1.6l0.1-1.1c0.1-1,0.1-1.6-1.2-1.9c-0.1,0-0.3-0.1-0.4-0.1
		c-0.2-0.1-0.4-0.1-0.6-0.2c-0.2,0-0.3-0.1-0.4-0.1c-0.2-0.1-0.4-0.1-0.5-0.1c-0.5-0.1-1-0.2-1.5-0.3c-0.9-0.2-1.8-0.4-2.8-0.5
		c-1.5-0.2-3-0.4-4.5-0.6c-1.6-0.2-3.1-0.3-4.6-0.4l-1.1-0.1c-0.2,0-0.4,0-0.5,0c-0.2,0-0.4,0-0.6,0c-0.4,0-0.8,0-1.3-0.1
		c-0.3,0-0.6,0-0.9,0c-0.5,0-1.2-0.1-1.8-0.1l-0.3,0l-4.3-0.2c-0.1,0-0.2,0-0.3,0l-0.7,0c-0.2,0-1.2,0-1.2,0c-1.1,0-1.2,1-1.2,1.7
		l0,0.4c-0.2,2.1-0.7,3.8-1.6,5.7c-0.5,0.9-1,1.8-1.9,2.8c-2,2.3-5.3,4.3-8.3,5.1C216.7,477,216.7,477.4,216.9,479.1z M255.9,487.5
		c0.2-0.9,0.4-1.9,0.3-3.2c-0.3-2.2-0.6-3-1.6-5.1c-0.7-1.6-1.7-2.8-2.8-4.2l-1.8-2.2c-0.1-0.1-0.3-0.4-0.4-0.5c0,0.1,0,0.3,0,0.4
		c0,0.2,0,0.4,0,0.6l-0.1,0.8c-0.3,2.9-0.7,6.5-2.1,9.1c-0.5,0.8-1,1.7-1.8,2.2c-0.5,0.3-0.9,0.5-1.4,0.5c-0.6,0-1.1-0.3-1.7-0.8
		c-1.4-1-2.2-2.9-2.3-5.2c-0.1-1.9,0.1-3,0.4-4.5l0.2-1.2c0.1-0.4,0.2-0.8,0.2-1.2c0.1-0.2,0.1-0.5,0.2-0.7c0.1-0.3,0.1-0.6,0.2-0.9
		c0.1-0.3,0.1-0.5,0.1-0.6c-0.4,0.2-1.7,1.1-1.9,1.3l-0.7,0.5c-0.8,0.6-1.7,1.2-2.3,1.8l-1.4,1.3c-0.9,0.9-2.1,2.4-2.7,3.6
		c-2.4,4.3-0.8,8,1,10.4c0.4,0.6,1.1,1.3,1.7,1.8c0.5,0.4,1.2,1,1.8,1.4c0.2,0.1,0.4,0.2,0.5,0.5l0,0.1l0,0.1
		c-0.1,0.5-0.1,0.9-0.2,1.3c-0.1,0.3-0.1,0.7-0.2,1.1c-0.2,1.8-0.5,3.6-0.8,5.4c-0.2,1.4-0.4,2.7-0.6,4.1l-0.1,0.9
		c-0.1,0.5-0.1,1-0.2,1.5c0,0.2-0.1,0.9-0.2,1.7c-0.1,0.7-0.2,1.4-0.3,2c1.9,1.4,3.9,2.5,5.4,3l0.3,0.1c0.3,0.1,0.9,0.3,1.1,0.3
		l1.3-0.6c0.1-0.1,0.6-0.3,0.6-0.3c0.2-0.1,0.4-0.2,0.6-0.3l0.3-0.2c0.9-0.5,1.9-0.9,2.7-1.5c0-0.3,0-0.5,0-0.8
		c0-0.4,0.1-0.9,0.1-1.4c0-0.4,0.1-0.7,0.1-1c0.1-0.8,0.1-1.6,0.2-2.5c0.1-0.7,0.1-1.5,0.2-2.2c0-0.3,0.1-0.6,0.1-1
		c0-0.5,0.1-1,0.1-1.4l0.2-2.4c0-0.4,0.1-0.9,0.1-1.3c0-0.4,0.1-1.4,0.1-1.4c0-0.3,0.1-0.6,0.1-0.8l0-0.3c0-0.3,0-0.7,0.1-1l0.1-0.2
		l0.2-0.1c0.9-0.3,3.4-1.9,4.2-2.6C254.2,490.8,255.4,489.4,255.9,487.5z M301.7,86.7c-1.9,7.6-5.4,14.4-10.2,20.4
		c-4,4.6-8.6,8.3-14.2,10.8c-3,1.3-6.1,2.2-9.4,2.6c-0.3,0-0.5,0-0.8-0.2c-8-5.5-13-12.5-15.2-20.8c-1.4-5.1-1.6-10.4-1.1-15.8
		c0.1-1.5,0.3-2.9,0.6-4.4c0.3-1.6,0.5-3.1,1-4.7c0.1-0.5,0.3-0.9,0.5-1.4c0.2-0.3,0.4-0.5,0.8-0.6c1.4-0.3,2.7-0.8,4-1.4
		c1.9-1,3.2-2.5,3.7-4.6c0.1-0.3,0.2-0.5,0.2-0.8c0.1-0.6,0.5-0.8,0.9-1c1.6-0.6,3.3-1,5-1.3c4.2-0.7,8.4-0.8,12.6-0.4
		c4.7,0.4,9.3,1.4,13.7,3.3c1.1,0.5,2.2,1.1,3.2,1.7c0.4,0.2,0.4,0.7,0.3,1.2c-0.4,1.6-0.2,3.2,0.4,4.6c0.6,1.5,1.7,2.6,3,3.4
		c0.6,0.4,1.2,0.7,1.9,0.8c0.2,0.1,0.3,0.2,0.3,0.4C302.7,81.2,302.3,84,301.7,86.7z M299.4,80.6C299.5,80.6,299.4,80.6,299.4,80.6
		c0-0.4-0.1-0.6-0.3-0.7c-0.9-0.6-1.7-1.4-2.5-2.2c-1.3-1.3-2-3-2.2-5c0-0.5-0.1-1-0.1-1.4c0-0.4-0.1-0.6-0.4-0.8
		c-3.2-1.8-6.5-3-10-3.7c-4.1-0.8-8.3-1.1-12.6-0.8c-2.1,0.2-4.2,0.5-6.3,1.3c-0.6,0.2-1,0.5-1.1,1.1c0,0.2-0.1,0.4-0.2,0.5
		c-0.7,2-2.1,3.8-4.2,4.9c-1,0.5-2,0.8-3,1c-0.3,0.1-0.5,0.2-0.7,0.5c-0.3,0.5-0.4,1-0.5,1.5c-0.5,2.8-1.1,5.6-1.3,8.4
		c-0.4,5-0.1,9.8,1.4,14.5c0,0.1,0.1,0.3,0.1,0.4c2.1,6.7,6.2,12.3,12.6,16.7c0.2,0.2,0.4,0.2,0.7,0.2c4.3-0.7,8.2-2.2,11.8-4.4
		c5.2-3.3,9.3-7.7,12.6-12.8c2.8-4.6,4.9-9.7,5.9-15.2C299.3,83.3,299.4,81.9,299.4,80.6z M266.4,102.5c0.5,1.1,1.5,2.4,4,2.9l0,0
		c0.3,0.1,0.8,0.1,1.4,0c2.2-0.6,4-0.7,5.7-0.5l0.1,0c0.9,0.1,1.7,0.3,2.6,0.3c0.8,0,1.5,0,2.2-0.4c1.9-1.1,2.8-3.3,2.3-5.3
		c-0.3-1.1-0.6-2.1-0.9-3c-0.7-1.8-1.4-3.2-2.4-4.3c-0.9-1.1-2.1-1.7-3.5-1.9c-0.5-0.1-1-0.1-1.5-0.1c-1.7,0.1-3.2,0.7-4.9,1.9
		c-2.8,1.9-4.6,4.3-5.4,7.1C265.8,100,265.8,101.4,266.4,102.5z M262.1,90.1c0.6,0.3,1.3,0.5,2,0.7h0c0.5,0.1,1.1,0.1,1.7,0
		c1.4-0.1,2.1-0.8,2.4-2.3c0.4-2.3-0.3-4.4-2-6.1c-0.6-0.6-1.4-1-2.2-1.2c-0.1,0-0.1,0-0.2,0c-1.3-0.2-2.5,0.3-3.8,1.3
		c-1.5,1.2-2,2.6-1.3,4.2C259.3,88.1,260.4,89.2,262.1,90.1z M284.7,90.8L284.7,90.8c0.3,0,0.5,0.1,0.8,0c1.4-0.1,5.3-1.3,6.2-6.1
		c0.3-1.6,0-2.7-1-3.4c-0.7-0.5-1.4-0.8-2.2-0.9c-1.4-0.2-2.7,0.3-3.9,1.4c-1.2,1.1-1.9,2.5-2.3,4.1c0,0.1,0,0.1,0,0.2
		c0,0.1-0.1,0.3-0.1,0.4C281.9,88.8,282.9,90.5,284.7,90.8z M274.2,85.3c0.3,0.2,0.7,0.3,1.1,0.4l0,0c0.9,0.1,1.8-0.2,2.6-0.9
		c0.3-0.2,0.6-0.5,0.8-0.8c0.8-1.1,1.4-2.3,1.7-3.8c0.1-0.4,0.1-0.8,0.2-1.2c0.2-2.5-0.8-4.3-2.9-5.2c-0.4-0.2-0.9-0.3-1.3-0.4
		c-1-0.1-2,0.1-2.7,0.7c-0.7,0.5-1.3,1.2-1.9,2.1c-1.4,2.2-1.6,4.2-0.7,6.2C271.7,83.5,272.7,84.5,274.2,85.3z M502.4,388.7
		c0,0,9.7,6.9,11.7,8.9c8.6,8.7,8.6,17.2-3,17.2c-7.1,0-14.6-7.3-18.4-9.9c0,7.2,1.8,12.7,4.5,17.5c8.4,15.3,28.2,5.2,28.2,5.2
		s34.2,24.8,46.7,33.5c8.5,6,16.5,9.7,20.7,9.7c2.2,0,9.5-10.2,8.5-13.4c-1.1-3.4-66.7-46.8-66.7-46.8c0.2-23.5-14.3-23.6-28-22.2
		C506,388.3,502.4,388.7,502.4,388.7z"/>
</g>
</svg>
